<svg xmlns="http://www.w3.org/2000/svg" xmlns:xlink="http://www.w3.org/1999/xlink" width="600" zoomAndPan="magnify" viewBox="0 0 450 149.999998" height="200" preserveAspectRatio="xMidYMid meet" version="1.0"><defs><g/><clipPath id="25519ed7ba"><path d="M 18 10 L 128 10 L 128 140.613281 L 18 140.613281 Z M 18 10 " clip-rule="nonzero"/></clipPath></defs><g clip-path="url(#25519ed7ba)"><path fill="#000000" d="M 42.660156 63.46875 C 42.621094 63.351562 42.585938 63.238281 42.546875 63.113281 C 41.515625 60.195312 39.910156 57.53125 38.78125 54.65625 C 37.109375 56.785156 34.898438 60.027344 36.90625 61.867188 C 38.417969 63.261719 40.644531 63.238281 42.660156 63.46875 Z M 46.472656 79.863281 C 45.589844 75.078125 44.761719 70.292969 43.355469 65.613281 C 40.355469 64.957031 35.21875 65.375 34.332031 61.375 C 33.582031 57.980469 35.964844 54.972656 38 52.425781 C 37.53125 50.992188 37.113281 49.554688 36.644531 48.128906 C 31.316406 53.785156 22.210938 64.605469 27.578125 72.578125 C 32.007812 79.148438 39.777344 78.171875 46.472656 79.863281 Z M 47.1875 83.507812 C 47.074219 82.972656 46.960938 82.441406 46.859375 81.898438 C 46.699219 81.953125 46.507812 81.96875 46.300781 81.902344 C 41.6875 80.667969 37.042969 81.0625 32.550781 79.019531 C 29.40625 77.582031 26.320312 75.382812 25.035156 72.046875 C 21.382812 62.539062 29.496094 52.714844 35.59375 46.289062 C 35.683594 46.1875 35.796875 46.121094 35.898438 46.074219 C 35.703125 45.589844 35.492188 45.109375 35.269531 44.632812 C 30.90625 48.738281 26.75 53.027344 23.597656 58.160156 C 20.925781 62.515625 18.429688 68.394531 21.441406 73.238281 C 25.527344 79.796875 33.503906 81.039062 40.539062 82.175781 C 42.753906 82.53125 44.972656 82.984375 47.1875 83.507812 Z M 56.925781 15.648438 C 55.84375 14.308594 54.203125 13.296875 52.679688 12.804688 C 47.171875 11.027344 45.972656 18.261719 45.898438 22.3125 C 45.832031 26.265625 46.882812 30.074219 45.8125 33.847656 C 45.832031 33.867188 45.851562 33.890625 45.867188 33.914062 C 46.890625 35.429688 47.941406 36.925781 49.011719 38.417969 C 50.570312 33.566406 49.015625 28.347656 50.039062 23.386719 C 50.796875 19.695312 53.078125 15.972656 56.925781 15.648438 Z M 57.410156 25.328125 C 57.878906 23.058594 58.410156 20.570312 58.101562 18.238281 C 58.074219 18.039062 58.035156 17.855469 57.980469 17.664062 C 51.839844 17.210938 51.65625 25.523438 51.742188 29.726562 C 51.796875 32.277344 51.851562 34.789062 51.371094 37.242188 C 54.855469 34.246094 56.46875 29.867188 57.410156 25.328125 Z M 61 57.734375 C 63.039062 57.109375 64.882812 56.015625 66.886719 55.300781 C 60.078125 52.855469 54.917969 46.398438 52.433594 39.71875 C 52.363281 39.582031 52.296875 39.449219 52.230469 39.316406 C 52.214844 39.277344 52.203125 39.242188 52.191406 39.207031 C 51.648438 39.628906 51.066406 40.035156 50.445312 40.40625 C 52.621094 43.425781 54.789062 46.453125 56.6875 49.644531 C 58.242188 52.25 59.671875 54.972656 61 57.734375 Z M 63.394531 88.964844 C 64.121094 89.285156 64.824219 89.628906 65.519531 89.984375 C 64.535156 85.425781 62.371094 80.914062 60.625 76.632812 C 59.273438 73.316406 57.761719 70.011719 55.6875 67.0625 C 55.175781 66.335938 54.644531 65.511719 53.929688 64.957031 C 53.210938 64.390625 53.589844 67.886719 53.65625 68.128906 C 54.144531 69.957031 54.664062 71.734375 54.976562 73.601562 C 55.65625 77.738281 56.113281 81.773438 55.628906 85.929688 C 58.273438 86.828125 60.875 87.835938 63.394531 88.964844 Z M 73.652344 95.042969 C 74.707031 89.800781 70.464844 84.289062 68.199219 79.96875 C 65.488281 74.808594 63.992188 69.085938 61.496094 63.816406 C 59.054688 58.652344 56.800781 53.410156 53.644531 48.625 C 50.769531 44.273438 47.640625 40.109375 44.710938 35.792969 C 42.160156 38.316406 39.46875 40.734375 36.816406 43.191406 C 38.347656 46.265625 39.019531 49.53125 40.21875 52.734375 C 41.34375 55.753906 43.070312 58.519531 44.140625 61.550781 C 46.734375 68.890625 47.757812 76.472656 49.351562 84.035156 L 49.351562 84.042969 C 50.804688 84.425781 52.246094 84.851562 53.679688 85.304688 C 54.136719 81.164062 53.648438 76.945312 52.804688 72.886719 C 52.339844 70.628906 51.09375 68.160156 51.253906 65.816406 C 51.398438 63.769531 52.804688 61.511719 54.988281 63.230469 C 57.738281 65.390625 59.65625 69.359375 61.035156 72.460938 C 63.5625 78.15625 66.695312 84.507812 67.726562 90.664062 C 67.75 90.84375 67.738281 91.003906 67.691406 91.152344 C 69.769531 92.339844 71.734375 93.664062 73.636719 95.085938 C 73.640625 95.074219 73.648438 95.0625 73.652344 95.054688 C 73.652344 95.050781 73.652344 95.050781 73.652344 95.042969 Z M 77.304688 67.425781 C 76.738281 67.152344 76.171875 66.8125 75.570312 66.40625 C 72.851562 64.507812 67.804688 60.761719 68.082031 57.035156 C 65.9375 57.6875 63.996094 58.863281 61.875 59.585938 C 62.757812 61.484375 63.605469 63.398438 64.410156 65.304688 C 64.59375 65.738281 64.761719 66.167969 64.9375 66.597656 C 67.21875 67.273438 69.316406 68.453125 71.230469 69.929688 C 73.167969 68.871094 75.230469 68.140625 77.304688 67.425781 Z M 80.640625 66.222656 C 81.230469 65.992188 81.8125 65.753906 82.378906 65.492188 C 81.101562 61.570312 78.261719 57.527344 75.191406 54.9375 C 73.675781 55.546875 72.097656 56.003906 70.574219 56.035156 C 68.351562 59.417969 76.816406 66.179688 80.640625 66.222656 Z M 84.132812 48.742188 C 84.386719 48.265625 84.578125 47.40625 84.769531 46.398438 C 82.945312 47.726562 80.546875 48.449219 78.574219 49.304688 C 75.230469 50.753906 71.253906 52.179688 67.527344 51.707031 C 65.582031 51.460938 63.777344 50.867188 62.101562 50.023438 C 62.078125 50.144531 62.035156 50.269531 61.976562 50.367188 C 64.34375 52.496094 67.042969 53.953125 69.894531 53.988281 C 70.003906 53.964844 70.121094 53.953125 70.226562 53.976562 C 70.914062 53.953125 71.597656 53.863281 72.289062 53.664062 C 75.886719 52.65625 79.011719 50.609375 82.535156 49.457031 C 83.042969 49.289062 83.542969 49.125 84.042969 48.953125 C 84.066406 48.886719 84.089844 48.8125 84.132812 48.742188 Z M 84.375 65.0625 C 84.988281 64.832031 85.597656 64.605469 86.214844 64.367188 C 84.148438 60.503906 82.476562 56.179688 79.347656 53.027344 C 78.679688 53.347656 77.976562 53.695312 77.234375 54.042969 C 80.34375 56.882812 83.117188 61.035156 84.375 65.0625 Z M 91.144531 41.207031 C 90.882812 39.652344 90.765625 38.046875 90.367188 36.460938 C 90.09375 35.398438 89.773438 34.128906 88.914062 33.363281 C 87.460938 33.234375 86.769531 33.753906 86.847656 34.921875 C 86.835938 35.5 86.890625 36.078125 87.011719 36.652344 C 87.257812 37.75 87.585938 38.824219 87.9375 39.894531 C 87.96875 39.894531 87.984375 39.886719 88.007812 39.886719 C 89.128906 39.90625 90.191406 40.507812 91.144531 41.207031 Z M 93.304688 99.429688 C 91.601562 96.207031 88.65625 93.664062 86.371094 90.855469 C 84.121094 88.09375 81.851562 85.34375 79.699219 82.5 C 75.996094 77.589844 71.832031 71.574219 65.902344 69.089844 C 66.617188 70.964844 67.296875 72.84375 68.042969 74.699219 C 69.351562 77.949219 71.167969 80.757812 72.765625 83.847656 C 74.1875 86.617188 75.714844 90.128906 75.785156 93.4375 C 77.542969 92.878906 79.390625 93.976562 81.171875 95.957031 C 82.898438 97.886719 84.839844 99.578125 86.84375 101.210938 C 88.855469 100.359375 91.0625 99.734375 93.304688 99.429688 Z M 93.28125 46.019531 C 93.15625 45.953125 93.023438 45.859375 92.921875 45.71875 C 92.761719 45.515625 92.621094 45.300781 92.488281 45.089844 C 90.773438 43.539062 88.507812 41.6875 88.277344 41.902344 C 88.269531 41.921875 88.253906 41.933594 88.242188 41.953125 C 87.234375 43.832031 87.140625 46.070312 86.539062 48.105469 C 88.769531 47.347656 91.003906 46.613281 93.28125 46.019531 Z M 94.027344 43.617188 C 94.078125 43.664062 94.125 43.710938 94.179688 43.753906 C 93.835938 41.414062 93.863281 39.015625 93.390625 36.675781 C 92.894531 34.246094 92.167969 30.457031 89.722656 29.164062 C 85.488281 26.917969 82.273438 31.402344 83.03125 35.292969 C 83.488281 37.65625 84.347656 40.054688 85.835938 41.988281 C 85.949219 41.6875 86.078125 41.410156 86.222656 41.152344 C 85.441406 38.964844 84.386719 36.335938 84.917969 34.042969 C 85.261719 32.527344 86.527344 30.183594 88.515625 30.828125 C 93.601562 32.488281 92.101562 39.515625 94.027344 43.617188 Z M 96.550781 48.957031 C 96.1875 48.488281 95.8125 48.03125 95.402344 47.589844 C 90.664062 48.636719 85.789062 50.179688 81.300781 52.144531 C 81.636719 52.496094 81.957031 52.878906 82.257812 53.261719 C 86.679688 50.921875 91.625 49.734375 96.550781 48.957031 Z M 100.636719 57.046875 C 99.734375 54.613281 98.730469 52.214844 97.320312 50.0625 C 92.40625 50.808594 87.417969 51.941406 82.980469 54.25 C 84.488281 56.40625 85.660156 58.816406 86.847656 61.179688 C 91.644531 60.683594 96.0625 58.464844 100.636719 57.046875 Z M 101.4375 59.246094 C 101.316406 58.894531 101.1875 58.546875 101.058594 58.195312 C 96.515625 59.574219 92.167969 61.710938 87.433594 62.332031 C 87.628906 62.710938 87.824219 63.089844 88.027344 63.457031 C 88.054688 63.519531 88.074219 63.574219 88.09375 63.632812 C 89.105469 63.238281 90.117188 62.84375 91.117188 62.460938 C 94.511719 61.160156 98.015625 60.410156 101.4375 59.246094 Z M 106.640625 105.613281 C 104.292969 103.785156 101.65625 102.066406 98.945312 101.476562 C 95.683594 100.765625 91.816406 101.441406 88.636719 102.644531 C 89.992188 103.710938 91.355469 104.78125 92.6875 105.882812 C 97.480469 105.039062 102.15625 104.515625 106.640625 105.613281 Z M 99.410156 112.035156 C 102.78125 111.28125 106.71875 109.332031 110.324219 109.222656 C 105.355469 106.445312 100.125 106.710938 94.675781 107.585938 C 94.863281 107.753906 95.054688 107.914062 95.242188 108.082031 C 96.640625 109.382812 98.035156 110.691406 99.410156 112.035156 Z M 106.683594 91.128906 C 109.941406 91.082031 113.363281 89.058594 116.207031 87.292969 C 111.257812 78.707031 105.398438 70.507812 102.066406 61.167969 C 96.019531 63.285156 89.820312 64.710938 83.917969 67.324219 C 83.660156 67.4375 83.414062 67.535156 83.171875 67.625 C 88.753906 72.933594 93.648438 78.855469 98.671875 84.675781 C 100.621094 86.941406 103.265625 91.171875 106.683594 91.128906 Z M 116.355469 114.945312 C 115.738281 114.1875 115.101562 113.4375 114.445312 112.714844 C 110.917969 109.390625 105.359375 112.386719 101.078125 113.679688 C 102.210938 114.820312 103.324219 115.972656 104.40625 117.160156 C 108.261719 116.210938 112.460938 113.992188 116.355469 114.945312 Z M 115.464844 137.746094 C 116.578125 138.097656 117.90625 138.398438 118.238281 137.371094 C 116.761719 135.144531 114.886719 133.355469 113.140625 131.351562 C 111.589844 129.566406 110.324219 127.609375 108.90625 125.722656 C 105.628906 121.398438 101.984375 117.351562 98.089844 113.574219 C 94.25 109.835938 90.277344 106.382812 86.027344 103.113281 C 84.25 101.757812 82.414062 100.359375 80.914062 98.703125 C 79.550781 97.191406 77.351562 93.671875 75.246094 96.308594 C 78.167969 98.601562 80.949219 101.101562 83.761719 103.65625 C 90.738281 110.011719 97.949219 116.585938 103.941406 123.902344 C 106.429688 126.953125 108.03125 130.429688 110.304688 133.589844 C 111.617188 135.40625 113.273438 137.054688 115.464844 137.746094 Z M 119.0625 92.550781 C 118.46875 91.375 117.851562 90.210938 117.210938 89.058594 C 114.21875 90.9375 110.066406 93.546875 106.683594 93.148438 C 103.824219 92.8125 101.722656 91.300781 99.855469 89.171875 C 93.648438 82.089844 87.816406 74.683594 80.898438 68.261719 C 78.222656 69.253906 75.476562 70.058594 72.921875 71.328125 C 75.386719 73.554688 77.539062 76.203125 79.394531 78.722656 C 82.351562 82.722656 85.488281 86.574219 88.621094 90.4375 C 90.914062 93.265625 93.78125 95.621094 95.351562 98.957031 C 95.390625 99.046875 95.417969 99.136719 95.433594 99.226562 C 96.457031 99.179688 97.46875 99.214844 98.460938 99.328125 C 99.453125 99.441406 100.4375 99.722656 101.40625 100.105469 C 106.921875 96.792969 112.777344 94.023438 119.0625 92.550781 Z M 120.382812 116.972656 C 120.472656 116.910156 120.582031 116.855469 120.695312 116.824219 C 120.324219 115.847656 119.957031 114.886719 119.574219 113.953125 C 118.082031 110.289062 116.816406 106.171875 114.605469 102.859375 C 112.859375 103.679688 111.121094 104.496094 109.347656 105.234375 C 111.488281 106.953125 113.5625 108.859375 115.492188 110.929688 C 115.71875 111.125 115.945312 111.328125 116.15625 111.5625 C 116.25 111.65625 116.308594 111.765625 116.355469 111.871094 C 117.804688 113.488281 119.152344 115.195312 120.382812 116.972656 Z M 121.492188 97.914062 C 121.015625 96.726562 120.507812 95.5625 119.96875 94.410156 C 114.152344 95.730469 108.746094 98.183594 103.597656 101.160156 C 104.980469 101.941406 106.300781 102.875 107.511719 103.792969 C 112.253906 101.996094 116.625 99.382812 121.492188 97.914062 Z M 119.347656 135.441406 C 122.082031 135.257812 123.609375 133.246094 124.457031 130.710938 C 123.742188 127.632812 122.539062 124.648438 120.984375 121.800781 C 120.320312 120.667969 119.585938 119.59375 118.714844 118.699219 C 115.121094 114.980469 110.222656 117.554688 105.925781 118.84375 C 107.003906 120.070312 108.054688 121.328125 109.0625 122.625 C 111.152344 125.3125 112.96875 128.222656 115.296875 130.71875 C 116.726562 132.25 118.132812 133.765625 119.347656 135.441406 Z M 125.550781 122.113281 C 125.597656 116.832031 125.082031 111.496094 124.042969 106.316406 C 123.59375 104.078125 122.964844 101.917969 122.214844 99.804688 C 120.234375 100.394531 118.339844 101.160156 116.464844 102.007812 C 118.691406 105.398438 120.144531 109.683594 121.535156 113.421875 C 122.832031 116.921875 124.210938 120.609375 125.246094 124.296875 C 125.351562 124.296875 125.359375 124.296875 125.359375 124.296875 C 125.40625 124.296875 125.445312 124.300781 125.488281 124.308594 C 125.53125 123.507812 125.542969 122.757812 125.550781 122.113281 Z M 126.679688 109.808594 C 127.640625 116.617188 130.445312 135.539062 120.34375 137.351562 C 120.1875 139.5 118.503906 140.605469 116.109375 140.027344 C 108.492188 138.171875 106.433594 129.734375 101.75 124.453125 C 94.832031 116.664062 87.246094 109.402344 79.445312 102.503906 C 75.5 99.011719 71.582031 95.460938 66.90625 92.9375 C 63.085938 90.871094 59.058594 89.277344 54.929688 87.929688 C 50.667969 86.542969 46.449219 85.1875 42.015625 84.453125 C 38.054688 83.800781 33.921875 83.367188 30.113281 82.027344 C 25.183594 80.304688 19.761719 76.75 18.460938 71.324219 C 17.324219 66.566406 18.988281 61.792969 21.476562 57.730469 C 27.234375 48.347656 35.972656 41.671875 43.65625 33.996094 C 45.238281 30.046875 43.578125 25.808594 43.90625 21.710938 C 44.09375 19.277344 44.453125 16.75 45.472656 14.511719 C 47.550781 9.941406 51.667969 9.339844 55.765625 12.109375 C 57.675781 13.398438 59.457031 14.894531 59.996094 17.210938 C 60.625 19.9375 59.976562 23.183594 59.363281 25.863281 C 58.355469 30.296875 56.867188 34.492188 53.867188 37.667969 C 54.003906 38.101562 54.164062 38.550781 54.339844 39.015625 C 56.867188 43.980469 61.625 49.453125 67.527344 49.6875 C 71.484375 49.839844 75.089844 48.671875 78.660156 47.074219 C 80.621094 46.195312 83.308594 45.542969 84.660156 43.742188 C 80.609375 38.769531 78.027344 26.730469 87.503906 26.632812 C 96.675781 26.542969 94.917969 40.171875 96.6875 45.722656 C 96.730469 45.847656 96.738281 45.953125 96.738281 46.058594 C 100.457031 49.984375 102.066406 55.132812 103.90625 60.109375 C 103.953125 60.234375 103.972656 60.355469 103.96875 60.472656 C 107.304688 69.894531 113.261719 78.035156 118.175781 86.679688 C 118.472656 86.867188 118.675781 87.226562 118.6875 87.589844 C 118.894531 87.964844 119.109375 88.34375 119.3125 88.726562 C 122.933594 95.402344 125.621094 102.28125 126.679688 109.808594 " fill-opacity="1" fill-rule="nonzero"/></g><path fill="#000000" d="M 113.410156 85.539062 C 113.515625 85.632812 112.960938 86.488281 111.617188 87.386719 C 110.953125 87.824219 110.097656 88.289062 109.03125 88.570312 C 108 88.847656 106.625 88.957031 105.410156 88.296875 C 104.808594 87.984375 104.3125 87.546875 103.921875 87.097656 C 103.519531 86.652344 103.210938 86.1875 102.925781 85.746094 C 102.371094 84.871094 101.929688 84.09375 101.484375 83.507812 C 101.054688 82.921875 100.613281 82.53125 100.304688 82.292969 C 99.953125 82.054688 99.738281 81.910156 99.773438 81.832031 C 99.800781 81.765625 100.054688 81.753906 100.476562 81.886719 C 100.9375 82.039062 101.527344 82.398438 102.097656 82.984375 C 102.667969 83.5625 103.210938 84.34375 103.800781 85.160156 C 104.085938 85.5625 104.402344 85.984375 104.753906 86.347656 C 105.097656 86.726562 105.492188 87.058594 105.933594 87.285156 C 106.152344 87.417969 106.398438 87.472656 106.625 87.5625 C 106.695312 87.578125 106.890625 87.613281 107.011719 87.644531 C 107.148438 87.660156 107.242188 87.660156 107.355469 87.675781 C 107.828125 87.703125 108.328125 87.648438 108.792969 87.554688 C 109.722656 87.359375 110.550781 87.011719 111.210938 86.691406 C 112.558594 86.03125 113.289062 85.417969 113.410156 85.539062 " fill-opacity="1" fill-rule="nonzero"/><path fill="#000000" d="M 108.667969 76.628906 C 109.347656 77.933594 109.371094 78.902344 109.242188 78.914062 C 109.0625 78.949219 108.769531 78.144531 107.976562 77.039062 C 107.59375 76.480469 107.070312 75.839844 106.492188 75.125 C 106.195312 74.761719 105.890625 74.390625 105.570312 73.972656 C 105.410156 73.765625 105.253906 73.546875 105.082031 73.332031 C 104.945312 73.109375 104.792969 72.894531 104.644531 72.671875 L 104.617188 72.625 L 104.5625 72.546875 L 104.515625 72.457031 L 104.421875 72.28125 L 104.242188 71.9375 C 104.117188 71.699219 103.996094 71.472656 103.878906 71.25 C 103.652344 70.796875 103.425781 70.367188 103.214844 69.949219 C 102.804688 69.113281 102.417969 68.363281 102.121094 67.726562 C 101.519531 66.449219 101.214844 65.625 101.351562 65.542969 C 101.484375 65.46875 102.042969 66.15625 102.824219 67.332031 C 103.210938 67.921875 103.667969 68.621094 104.128906 69.4375 C 104.359375 69.84375 104.605469 70.265625 104.855469 70.710938 C 105.097656 71.144531 105.34375 71.585938 105.597656 72.046875 C 105.746094 72.265625 105.890625 72.488281 106.035156 72.707031 C 106.179688 72.914062 106.328125 73.113281 106.46875 73.3125 C 106.765625 73.722656 107.050781 74.117188 107.320312 74.484375 C 107.871094 75.253906 108.34375 75.964844 108.667969 76.628906 " fill-opacity="1" fill-rule="nonzero"/><path fill="#000000" d="M 103.941406 95.648438 C 104.003906 95.730469 103.152344 96.65625 101.167969 97.167969 C 100.1875 97.386719 98.855469 97.339844 97.625 96.707031 C 96.402344 96.082031 95.335938 95.050781 94.414062 93.898438 C 93.476562 92.753906 92.707031 91.601562 92 90.582031 C 91.285156 89.554688 90.636719 88.660156 90.050781 87.9375 C 89.46875 87.226562 88.945312 86.671875 88.585938 86.308594 C 88.21875 85.9375 87.996094 85.722656 88.046875 85.652344 C 88.09375 85.59375 88.378906 85.679688 88.855469 85.957031 C 89.332031 86.230469 89.957031 86.71875 90.652344 87.398438 C 91.339844 88.078125 92.082031 88.964844 92.839844 89.964844 C 93.613281 90.960938 94.40625 92.089844 95.300781 93.183594 C 96.175781 94.28125 97.125 95.210938 98.117188 95.777344 C 99.113281 96.351562 100.152344 96.464844 101.03125 96.367188 C 102.804688 96.117188 103.855469 95.46875 103.941406 95.648438 " fill-opacity="1" fill-rule="nonzero"/><path fill="#000000" d="M 97.800781 78.792969 C 98.214844 79.398438 98.367188 79.769531 98.308594 79.808594 C 98.230469 79.855469 97.957031 79.574219 97.460938 79.082031 C 96.960938 78.589844 96.203125 77.910156 95.230469 77.113281 C 94.234375 76.316406 93.058594 75.367188 91.75 74.320312 C 90.445312 73.238281 89.003906 72.027344 87.746094 70.421875 C 87.175781 69.671875 86.710938 68.84375 86.390625 67.96875 L 86.1875 67.402344 L 86.789062 67.246094 C 89.902344 66.457031 92.601562 65.511719 94.550781 64.890625 C 96.492188 64.273438 97.691406 63.949219 97.746094 64.085938 C 97.789062 64.210938 96.683594 64.765625 94.804688 65.582031 C 93.042969 66.328125 90.59375 67.320312 87.6875 68.15625 C 87.9375 68.6875 88.265625 69.222656 88.664062 69.730469 C 89.796875 71.199219 91.183594 72.410156 92.429688 73.519531 C 93.6875 74.628906 94.847656 75.617188 95.765625 76.515625 C 96.6875 77.402344 97.386719 78.199219 97.800781 78.792969 " fill-opacity="1" fill-rule="nonzero"/><path fill="#000000" d="M 84.519531 82.175781 C 85.429688 83.695312 85.929688 84.667969 85.792969 84.75 C 85.660156 84.839844 84.929688 84.015625 83.847656 82.621094 C 83.308594 81.925781 82.683594 81.085938 82 80.136719 C 81.671875 79.667969 81.3125 79.171875 80.945312 78.65625 C 80.566406 78.152344 80.175781 77.625 79.769531 77.085938 C 78.429688 75.28125 77.226562 73.589844 76.304688 72.21875 L 76.023438 71.792969 L 76.417969 71.574219 C 77.53125 70.941406 78.550781 70.886719 79.234375 70.851562 C 79.898438 70.882812 80.265625 70.960938 80.269531 71.046875 C 80.3125 71.277344 78.929688 71.214844 77.339844 72.070312 C 78.328125 73.292969 79.480469 74.773438 80.695312 76.417969 C 81.09375 76.964844 81.480469 77.492188 81.859375 78.011719 C 82.207031 78.535156 82.542969 79.054688 82.867188 79.539062 C 83.5 80.523438 84.066406 81.414062 84.519531 82.175781 " fill-opacity="1" fill-rule="nonzero"/><path fill="#000000" d="M 83.589844 91.683594 C 84.855469 93.695312 85.585938 94.996094 85.460938 95.089844 C 85.335938 95.183594 84.367188 94.054688 82.914062 92.125 C 82.230469 91.140625 81.433594 89.945312 80.574219 88.625 C 79.699219 87.316406 78.824219 85.84375 77.746094 84.355469 C 75.75 81.324219 73.546875 78.925781 72.019531 77.046875 C 70.496094 75.191406 69.679688 73.953125 69.785156 73.859375 C 69.917969 73.746094 70.964844 74.808594 72.628906 76.519531 C 73.46875 77.367188 74.441406 78.40625 75.515625 79.59375 C 76.035156 80.191406 76.566406 80.855469 77.113281 81.527344 C 77.253906 81.707031 77.390625 81.851562 77.53125 82.054688 C 77.660156 82.238281 77.789062 82.417969 77.910156 82.601562 C 78.167969 82.964844 78.425781 83.328125 78.6875 83.707031 C 79.746094 85.179688 80.628906 86.710938 81.46875 88.066406 C 82.285156 89.429688 83 90.644531 83.589844 91.683594 " fill-opacity="1" fill-rule="nonzero"/><path fill="#000000" d="M 56.992188 58.289062 C 57.816406 60.558594 58.207031 62.007812 58.066406 62.0625 C 57.917969 62.117188 57.253906 60.773438 56.246094 58.601562 C 55.234375 56.417969 53.851562 53.410156 52.078125 50.234375 C 51.171875 48.65625 50.25 47.191406 49.351562 45.90625 C 48.4375 44.632812 47.570312 43.507812 46.78125 42.625 C 45.226562 40.847656 44.078125 39.839844 44.203125 39.707031 C 44.292969 39.613281 45.582031 40.351562 47.367188 42.070312 C 48.253906 42.90625 49.214844 44.011719 50.203125 45.285156 C 51.167969 46.582031 52.148438 48.0625 53.066406 49.671875 C 54.890625 52.914062 56.164062 56.015625 56.992188 58.289062 " fill-opacity="1" fill-rule="nonzero"/><path fill="#000000" d="M 50.253906 78.847656 C 50.433594 80.375 50.570312 81.347656 50.402344 81.378906 C 50.261719 81.414062 49.847656 80.539062 49.464844 79.015625 C 49.085938 77.457031 48.847656 75.296875 48.671875 72.949219 C 48.496094 70.601562 48.253906 68.511719 47.980469 67.015625 C 47.9375 66.632812 47.824219 66.308594 47.757812 66.011719 C 47.695312 65.714844 47.640625 65.457031 47.597656 65.242188 C 47.519531 64.820312 47.507812 64.5625 47.585938 64.53125 C 47.65625 64.503906 47.808594 64.699219 48.007812 65.085938 C 48.117188 65.285156 48.234375 65.527344 48.367188 65.816406 C 48.496094 66.105469 48.664062 66.429688 48.761719 66.8125 C 49.253906 68.324219 49.632812 70.488281 49.808594 72.863281 C 49.984375 75.226562 50.101562 77.351562 50.253906 78.847656 " fill-opacity="1" fill-rule="nonzero"/><path fill="#000000" d="M 43.320312 52.417969 C 45.222656 57.199219 46.53125 61.160156 46.234375 61.28125 C 45.941406 61.394531 44.160156 57.617188 42.261719 52.835938 C 40.367188 48.054688 39.0625 44.09375 39.359375 43.980469 C 39.652344 43.867188 41.425781 47.640625 43.320312 52.417969 " fill-opacity="1" fill-rule="nonzero"/><path fill="#000000" d="M 41.289062 76.199219 C 41.863281 76.277344 42.171875 76.359375 42.171875 76.4375 C 42.171875 76.519531 41.855469 76.585938 41.285156 76.640625 C 40.71875 76.71875 39.847656 76.6875 38.800781 76.5625 C 36.738281 76.269531 33.808594 75.328125 31.421875 73.042969 C 30.246094 71.902344 29.382812 70.558594 28.851562 69.242188 C 28.734375 68.90625 28.625 68.578125 28.519531 68.257812 C 28.417969 67.941406 28.394531 67.609375 28.324219 67.300781 C 28.179688 66.6875 28.214844 66.09375 28.1875 65.566406 C 28.234375 64.507812 28.375 63.660156 28.585938 63.113281 C 28.777344 62.558594 28.910156 62.265625 28.984375 62.285156 C 29.0625 62.304688 29.074219 62.636719 29.023438 63.195312 C 28.953125 63.753906 28.9375 64.5625 29 65.542969 C 29.066406 66.023438 29.078125 66.566406 29.25 67.117188 C 29.328125 67.394531 29.371094 67.683594 29.476562 67.976562 C 29.597656 68.257812 29.703125 68.546875 29.824219 68.84375 C 30.351562 70.011719 31.152344 71.1875 32.21875 72.226562 C 34.375 74.300781 37.023438 75.296875 38.949219 75.773438 C 39.914062 75.988281 40.707031 76.132812 41.289062 76.199219 " fill-opacity="1" fill-rule="nonzero"/><path fill="#000000" d="M 35.125 65.695312 C 36.125 66.523438 37.042969 66.707031 36.988281 66.890625 C 36.988281 67.003906 36.007812 67.152344 34.652344 66.339844 C 34.316406 66.148438 34 65.859375 33.679688 65.523438 C 33.390625 65.164062 33.109375 64.753906 32.902344 64.289062 C 32.472656 63.355469 32.273438 62.257812 32.246094 61.132812 C 32.210938 58.867188 32.757812 56.914062 33.253906 55.5625 C 33.761719 54.214844 34.261719 53.460938 34.398438 53.523438 C 34.546875 53.582031 34.320312 54.433594 34.027344 55.796875 C 33.75 57.152344 33.355469 59.042969 33.390625 61.105469 C 33.410156 62.128906 33.5625 63.089844 33.867188 63.882812 C 34.171875 64.671875 34.632812 65.285156 35.125 65.695312 " fill-opacity="1" fill-rule="nonzero"/><g fill="#000000" fill-opacity="1"><g transform="translate(187.565705, 96.146389)"><g><path d="M 14.65625 -19.273438 C 14.65625 -19.273438 14.65625 -19.273438 14.65625 -25.597656 C 14.65625 -27.910156 14.65625 -30.21875 14.65625 -32.527344 C 14.65625 -33.230469 14.859375 -33.832031 15.257812 -34.332031 C 15.359375 -34.535156 15.660156 -34.632812 15.960938 -34.632812 C 16.0625 -34.734375 16.261719 -34.632812 16.464844 -34.632812 C 17.367188 -34.132812 18.371094 -34.132812 19.375 -34.535156 C 19.574219 -34.632812 19.777344 -34.632812 20.078125 -34.535156 C 20.78125 -34.234375 21.683594 -34.132812 21.984375 -33.230469 C 22.488281 -32.828125 22.789062 -32.324219 23.289062 -32.023438 C 23.894531 -31.722656 24.292969 -31.222656 24.59375 -30.617188 C 25.097656 -29.414062 25.597656 -28.308594 25.800781 -27.105469 C 25.800781 -26.90625 25.902344 -26.601562 26.101562 -26.503906 C 26.703125 -26.101562 26.90625 -25.5 27.207031 -24.898438 C 27.507812 -23.894531 27.605469 -22.988281 27.910156 -22.085938 C 28.210938 -21.382812 28.308594 -20.78125 28.109375 -20.078125 C 28.007812 -19.878906 27.910156 -19.675781 28.007812 -19.375 C 28.308594 -18.671875 28.210938 -17.769531 28.210938 -16.964844 C 28.308594 -15.863281 28.007812 -14.65625 28.609375 -13.550781 C 28.710938 -12.851562 28.710938 -12.148438 28.8125 -11.34375 C 28.914062 -10.539062 29.3125 -9.839844 29.214844 -9.035156 C 29.214844 -8.433594 29.3125 -7.832031 29.613281 -7.328125 C 30.015625 -6.625 30.316406 -5.824219 30.21875 -5.019531 C 30.21875 -4.515625 30.316406 -4.015625 30.519531 -3.613281 C 31.722656 -1.203125 31.824219 -1.105469 34.132812 -0.101562 C 34.234375 0 34.332031 0 34.433594 0 C 34.632812 0.199219 34.835938 0.199219 35.136719 0.101562 C 35.539062 -0.101562 36.039062 -0.199219 36.542969 -0.402344 C 37.144531 -0.601562 37.644531 -1.003906 38.046875 -1.605469 C 38.550781 -2.609375 39.050781 -3.714844 38.851562 -4.917969 C 38.851562 -4.917969 38.851562 -5.019531 38.851562 -5.121094 C 38.851562 -6.125 38.75 -7.128906 39.152344 -8.03125 C 39.253906 -8.132812 39.152344 -8.332031 39.152344 -8.53125 C 38.953125 -8.933594 38.851562 -9.234375 39.152344 -9.636719 C 39.453125 -10.339844 39.351562 -10.941406 39.050781 -11.542969 C 38.953125 -11.847656 38.953125 -12.148438 39.050781 -12.546875 C 39.152344 -12.851562 39.351562 -13.152344 39.351562 -13.453125 C 39.253906 -14.757812 39.554688 -16.0625 38.953125 -17.367188 C 38.851562 -17.667969 38.851562 -18.171875 38.851562 -18.570312 C 38.851562 -19.476562 38.851562 -20.378906 38.851562 -21.28125 C 38.851562 -21.582031 38.75 -21.984375 38.648438 -22.1875 C 38.347656 -22.890625 38.347656 -23.492188 38.347656 -24.195312 C 38.347656 -24.59375 38.347656 -24.996094 38.25 -25.398438 C 38.046875 -26 37.644531 -26.601562 37.445312 -27.207031 C 37.246094 -27.808594 37.34375 -28.511719 36.945312 -29.011719 C 36.742188 -29.3125 36.640625 -29.714844 36.441406 -29.917969 C 36.039062 -30.417969 35.738281 -31.019531 35.4375 -31.621094 C 35.238281 -32.023438 34.9375 -32.425781 34.535156 -32.726562 C 33.730469 -33.429688 33.230469 -34.234375 32.726562 -35.136719 C 31.824219 -36.542969 31.523438 -36.542969 33.53125 -37.144531 C 34.234375 -37.445312 34.734375 -38.046875 35.4375 -38.25 C 35.839844 -38.449219 36.140625 -38.75 36.339844 -39.152344 C 36.441406 -39.453125 36.640625 -39.753906 36.742188 -40.054688 C 37.34375 -41.160156 37.746094 -42.265625 38.550781 -43.269531 C 38.75 -43.367188 38.75 -43.667969 38.851562 -43.972656 C 38.851562 -44.371094 38.851562 -44.976562 39.050781 -45.375 C 39.253906 -45.980469 39.351562 -46.679688 39.351562 -47.285156 C 39.351562 -48.289062 39.351562 -49.292969 39.351562 -50.296875 C 39.351562 -50.796875 39.453125 -51.199219 39.652344 -51.699219 C 39.855469 -52.003906 39.855469 -52.304688 39.753906 -52.605469 C 39.453125 -53.207031 39.554688 -53.910156 39.453125 -54.511719 C 39.253906 -55.214844 39.351562 -56.019531 39.351562 -56.71875 C 39.351562 -57.824219 39.351562 -58.929688 39.351562 -59.933594 C 39.351562 -60.636719 39.152344 -61.238281 38.851562 -61.839844 C 38.449219 -62.34375 38.148438 -62.945312 37.746094 -63.445312 C 37.246094 -64.148438 36.742188 -64.75 36.742188 -65.65625 C 36.742188 -66.054688 36.542969 -66.457031 36.339844 -66.757812 C 35.941406 -67.460938 35.539062 -68.0625 35.136719 -68.667969 C 34.332031 -69.570312 33.429688 -70.273438 32.324219 -70.675781 C 31.824219 -70.875 31.421875 -70.976562 30.921875 -71.175781 C 30.417969 -71.277344 29.917969 -71.277344 29.414062 -71.074219 C 28.914062 -70.875 28.410156 -70.875 28.007812 -70.574219 C 27.40625 -70.273438 26.804688 -70.574219 26.300781 -70.472656 C 25.699219 -70.273438 25.296875 -70.375 24.898438 -70.773438 C 24.59375 -71.074219 24.292969 -71.175781 23.792969 -71.175781 C 23.492188 -71.175781 23.089844 -71.277344 22.789062 -71.175781 C 22.1875 -70.976562 21.582031 -70.574219 20.882812 -71.074219 C 19.976562 -70.574219 18.875 -70.976562 17.96875 -70.472656 C 17.769531 -70.273438 17.46875 -70.375 17.265625 -70.472656 C 16.964844 -70.574219 16.664062 -70.675781 16.261719 -70.574219 C 16.0625 -70.472656 15.863281 -70.375 15.558594 -70.273438 C 14.65625 -70.273438 13.753906 -70.273438 12.851562 -70.273438 C 12.546875 -70.273438 12.347656 -70.472656 12.148438 -70.574219 C 11.945312 -70.574219 11.847656 -70.773438 11.746094 -70.875 C 11.445312 -71.074219 11.144531 -71.175781 10.84375 -71.074219 C 10.539062 -70.976562 10.339844 -70.773438 10.140625 -70.773438 C 8.933594 -70.773438 8.03125 -70.171875 7.128906 -69.671875 C 6.726562 -69.570312 6.625 -69.269531 6.625 -68.96875 C 6.523438 -68.265625 6.523438 -67.5625 6.523438 -66.960938 C 6.523438 -65.957031 6.125 -65.050781 5.621094 -64.148438 C 5.320312 -63.648438 5.019531 -63.246094 5.121094 -62.644531 C 5.121094 -61.941406 5.121094 -61.339844 4.71875 -60.734375 C 4.515625 -60.335938 4.617188 -59.933594 4.71875 -59.53125 C 4.820312 -59.332031 4.917969 -59.128906 4.820312 -59.03125 C 4.316406 -58.125 4.71875 -57.023438 4.214844 -56.117188 C 4.015625 -55.917969 4.117188 -55.515625 4.117188 -55.214844 C 4.015625 -54.613281 4.117188 -54.011719 3.914062 -53.507812 C 3.714844 -52.804688 3.613281 -52.304688 3.816406 -51.601562 C 3.511719 -50.898438 3.613281 -50.195312 3.511719 -49.390625 C 3.511719 -48.488281 3.511719 -47.585938 3.511719 -46.679688 C 3.511719 -46.378906 3.511719 -46.078125 3.3125 -45.777344 C 3.011719 -45.175781 3.011719 -44.472656 3.011719 -43.871094 C 3.011719 -41.261719 3.011719 -38.75 3.011719 -36.242188 C 3.011719 -35.636719 3.011719 -35.035156 2.710938 -34.535156 C 2.410156 -33.933594 2.507812 -33.429688 2.710938 -32.828125 C 2.8125 -32.625 3.011719 -32.324219 2.910156 -32.125 C 2.410156 -31.019531 2.507812 -29.917969 2.507812 -28.8125 C 2.507812 -26.703125 2.507812 -24.695312 2.507812 -22.585938 C 2.507812 -21.984375 2.609375 -21.484375 2.308594 -20.882812 C 2.109375 -20.578125 2.207031 -20.277344 2.308594 -19.976562 C 2.609375 -18.773438 2.507812 -17.566406 2.410156 -16.363281 C 2.007812 -15.660156 2.007812 -14.957031 2.410156 -14.253906 C 2.609375 -13.855469 2.507812 -13.453125 2.308594 -13.050781 C 2.007812 -12.449219 2.007812 -11.746094 2.308594 -11.144531 C 2.308594 -10.941406 2.410156 -10.84375 2.410156 -10.640625 C 2.507812 -9.9375 2.507812 -9.234375 2.609375 -8.433594 C 2.609375 -7.730469 3.113281 -7.128906 3.011719 -6.324219 C 2.910156 -5.519531 3.210938 -4.917969 3.511719 -4.214844 C 3.914062 -3.511719 4.214844 -2.910156 4.617188 -2.207031 C 4.71875 -1.90625 5.019531 -1.707031 5.421875 -1.707031 C 6.222656 -1.707031 6.925781 -1.503906 7.429688 -0.902344 C 7.730469 -0.5 8.03125 -0.601562 8.433594 -0.601562 C 9.136719 -0.703125 9.738281 -0.199219 10.441406 -0.199219 C 11.644531 -0.101562 11.644531 0 12.347656 -0.703125 C 12.648438 -1.003906 12.949219 -1.304688 13.25 -1.605469 C 13.351562 -1.808594 13.550781 -2.007812 13.550781 -2.207031 C 13.953125 -3.113281 14.253906 -4.117188 14.554688 -5.019531 C 14.65625 -5.320312 14.65625 -5.621094 14.457031 -6.023438 C 14.355469 -6.222656 14.253906 -6.425781 14.457031 -6.726562 C 14.65625 -7.128906 14.457031 -7.429688 14.355469 -7.832031 C 14.253906 -8.03125 14.253906 -8.230469 14.253906 -8.332031 C 14.554688 -8.835938 14.554688 -9.4375 14.253906 -9.9375 C 14.15625 -10.238281 14.15625 -10.640625 14.355469 -10.941406 C 14.757812 -11.847656 14.757812 -12.851562 14.355469 -13.753906 C 14.15625 -14.15625 14.15625 -14.554688 14.355469 -14.957031 C 14.65625 -15.558594 14.65625 -16.0625 14.355469 -16.5625 C 14.253906 -16.867188 14.253906 -17.066406 14.355469 -17.265625 C 14.65625 -17.96875 14.65625 -18.570312 14.65625 -19.273438 Z M 14.65625 -44.273438 C 14.65625 -45.074219 14.65625 -45.980469 14.65625 -46.78125 C 14.757812 -47.183594 14.757812 -47.585938 14.859375 -47.988281 C 15.160156 -48.6875 15.160156 -49.390625 14.957031 -50.09375 C 14.757812 -50.597656 15.257812 -51 14.957031 -51.5 C 14.65625 -51.902344 14.65625 -52.304688 14.65625 -52.703125 C 14.65625 -53.207031 14.65625 -53.707031 14.65625 -54.210938 C 14.65625 -56.71875 14.65625 -59.230469 14.65625 -61.839844 C 14.65625 -62.140625 14.65625 -62.441406 14.757812 -62.742188 C 14.757812 -62.945312 14.859375 -63.144531 14.957031 -63.144531 C 15.359375 -63.445312 15.863281 -63.746094 16.363281 -63.746094 C 17.667969 -63.746094 19.074219 -63.847656 20.378906 -63.847656 C 20.578125 -63.847656 20.882812 -63.746094 21.082031 -63.648438 C 21.484375 -63.445312 21.886719 -63.445312 22.285156 -63.648438 C 22.585938 -63.746094 22.890625 -63.746094 23.289062 -63.746094 C 23.492188 -63.847656 23.792969 -63.746094 23.992188 -63.648438 C 24.59375 -63.246094 25.199219 -62.84375 25.800781 -62.441406 C 26.300781 -62.042969 26.703125 -61.640625 26.703125 -61.039062 C 26.601562 -59.832031 27.304688 -58.828125 27.40625 -57.625 C 27.707031 -57.222656 27.707031 -56.71875 27.40625 -56.21875 C 27.605469 -55.714844 27.605469 -55.214844 27.304688 -54.613281 C 27.105469 -54.210938 27.207031 -53.609375 27.40625 -53.207031 C 27.707031 -52.703125 27.707031 -52.101562 27.707031 -51.5 C 27.707031 -50.695312 27.707031 -49.894531 27.707031 -49.089844 C 27.707031 -48.488281 27.605469 -47.886719 27.40625 -47.382812 C 27.304688 -47.082031 27.304688 -46.78125 27.207031 -46.480469 C 27.105469 -45.578125 26.703125 -44.875 25.902344 -44.472656 C 25.199219 -43.972656 24.59375 -43.46875 24.195312 -42.664062 C 24.09375 -42.464844 23.894531 -42.265625 23.691406 -42.265625 C 22.890625 -42.265625 22.1875 -41.964844 21.484375 -41.5625 C 20.980469 -41.359375 20.480469 -41.160156 19.878906 -41.160156 C 18.875 -41.160156 17.96875 -41.160156 17.066406 -41.160156 C 16.464844 -41.160156 15.960938 -41.058594 15.359375 -40.859375 C 15.058594 -40.65625 14.757812 -40.960938 14.757812 -41.359375 C 14.65625 -42.363281 14.757812 -43.269531 14.757812 -44.273438 C 14.65625 -44.273438 14.65625 -44.273438 14.65625 -44.273438 Z M 14.65625 -44.273438 "/></g></g></g><g fill="#000000" fill-opacity="1"><g transform="translate(229.426308, 96.146389)"><g><path d="M 34.433594 -36.339844 C 34.433594 -36.339844 34.433594 -36.339844 34.433594 -43.167969 C 34.433594 -45.074219 34.433594 -46.984375 34.433594 -48.890625 C 34.433594 -49.691406 34.535156 -50.394531 34.234375 -51.199219 C 34.132812 -51.300781 34.132812 -51.5 34.132812 -51.601562 C 34.433594 -53.007812 34.535156 -54.3125 34.03125 -55.617188 C 33.933594 -55.816406 33.933594 -56.21875 33.933594 -56.519531 C 33.832031 -57.023438 33.832031 -57.523438 33.933594 -58.027344 C 33.933594 -58.628906 33.832031 -59.03125 33.429688 -59.429688 C 33.128906 -59.730469 33.027344 -60.132812 32.929688 -60.535156 C 32.625 -61.339844 32.425781 -62.042969 32.125 -62.742188 C 32.023438 -63.144531 31.824219 -63.445312 31.925781 -63.949219 C 31.925781 -64.652344 31.722656 -65.253906 31.320312 -65.855469 C 30.921875 -66.660156 30.316406 -67.363281 29.917969 -68.164062 C 29.414062 -69.269531 28.210938 -69.46875 27.507812 -70.171875 C 27.40625 -70.273438 27.105469 -70.273438 27.003906 -70.375 C 26 -70.375 24.996094 -70.375 24.195312 -69.570312 C 24.09375 -69.46875 23.894531 -69.371094 23.691406 -69.371094 C 23.492188 -69.371094 23.191406 -69.371094 23.089844 -69.570312 C 22.890625 -69.671875 22.890625 -69.769531 22.789062 -69.972656 C 22.488281 -70.472656 21.984375 -70.773438 21.382812 -70.875 C 21.082031 -70.875 20.78125 -70.875 20.578125 -70.976562 C 19.976562 -71.277344 19.375 -71.378906 18.671875 -71.378906 C 17.96875 -71.277344 17.265625 -71.378906 16.664062 -71.378906 C 16.164062 -71.378906 15.660156 -71.476562 15.160156 -71.578125 C 13.652344 -72.179688 12.347656 -71.679688 11.242188 -70.675781 C 10.238281 -69.671875 9.234375 -68.566406 8.230469 -67.5625 C 7.929688 -67.261719 7.832031 -66.960938 7.628906 -66.558594 C 7.328125 -65.65625 7.328125 -64.75 6.925781 -63.847656 C 6.726562 -63.246094 6.828125 -62.542969 6.523438 -61.941406 C 6.125 -61.238281 6.222656 -60.433594 6.125 -59.730469 C 6.125 -59.429688 6.023438 -59.03125 5.921875 -58.726562 C 5.621094 -57.925781 5.621094 -56.921875 5.21875 -56.117188 C 5.21875 -56.019531 5.21875 -55.917969 5.21875 -55.816406 C 5.21875 -55.214844 4.917969 -54.710938 4.515625 -54.3125 C 4.214844 -53.910156 4.117188 -53.507812 4.117188 -53.105469 C 4.117188 -52.304688 4.117188 -51.398438 4.117188 -50.597656 C 4.117188 -50.195312 4.117188 -49.691406 3.914062 -49.390625 C 3.714844 -48.6875 3.613281 -48.085938 3.613281 -47.382812 C 3.613281 -46.28125 3.613281 -45.175781 3.613281 -44.070312 C 3.613281 -43.570312 3.613281 -43.066406 3.414062 -42.664062 C 3.113281 -42.0625 3.210938 -41.460938 3.113281 -40.960938 C 3.011719 -40.355469 2.8125 -39.753906 2.710938 -39.253906 C 2.609375 -38.953125 2.710938 -38.550781 2.8125 -38.25 C 2.910156 -38.046875 3.011719 -37.746094 2.910156 -37.546875 C 2.710938 -37.144531 2.609375 -36.742188 2.609375 -36.339844 C 2.609375 -35.4375 2.609375 -34.535156 2.207031 -33.628906 C 2.007812 -33.027344 2.109375 -32.226562 2.410156 -31.621094 C 2.507812 -31.320312 2.609375 -31.019531 2.410156 -30.617188 C 1.90625 -29.011719 2.207031 -27.304688 2.207031 -25.699219 C 2.207031 -25.5 2.308594 -25.398438 2.308594 -25.199219 C 2.410156 -24.796875 2.507812 -24.394531 2.710938 -23.992188 C 3.011719 -23.390625 3.113281 -22.789062 2.8125 -22.085938 C 2.609375 -21.785156 2.710938 -21.28125 2.710938 -20.882812 C 2.609375 -20.378906 2.8125 -19.878906 2.910156 -19.375 C 2.910156 -18.773438 2.710938 -18.269531 2.710938 -17.667969 C 2.609375 -17.46875 2.710938 -17.167969 2.710938 -16.867188 C 2.710938 -16.867188 2.710938 -16.765625 2.8125 -16.664062 C 3.210938 -15.960938 3.210938 -15.257812 3.113281 -14.457031 C 3.113281 -13.453125 3.3125 -12.449219 3.714844 -11.542969 C 4.015625 -10.640625 4.417969 -9.839844 4.515625 -8.933594 C 4.71875 -7.527344 5.320312 -6.222656 5.722656 -4.820312 C 5.824219 -4.515625 6.023438 -4.316406 6.222656 -4.015625 C 6.625 -3.613281 7.027344 -3.3125 7.527344 -3.3125 C 8.132812 -3.3125 8.433594 -3.113281 8.835938 -2.710938 C 9.234375 -2.207031 9.738281 -2.007812 10.339844 -1.808594 C 11.242188 -1.605469 12.148438 -1.40625 12.949219 -1.105469 C 13.652344 -0.902344 14.253906 -0.804688 14.957031 -0.804688 C 15.660156 -0.804688 16.261719 -0.804688 16.964844 -0.5 C 17.167969 -0.402344 17.367188 -0.300781 17.667969 -0.300781 C 18.269531 -0.300781 18.972656 -0.199219 19.574219 0.101562 C 20.179688 0.300781 20.78125 0.300781 21.28125 0.101562 C 22.1875 -0.300781 23.089844 -0.300781 23.992188 -0.300781 C 24.292969 -0.300781 24.59375 -0.300781 24.796875 -0.402344 C 26 -0.902344 27.304688 -1.003906 28.511719 -1.605469 C 29.816406 -2.410156 30.820312 -3.414062 31.320312 -4.820312 C 31.523438 -5.421875 31.722656 -6.023438 32.023438 -6.625 C 32.527344 -7.832031 32.929688 -9.136719 32.929688 -10.539062 C 32.929688 -11.644531 32.828125 -12.851562 33.328125 -13.953125 C 33.429688 -14.253906 33.429688 -14.65625 33.429688 -14.957031 C 33.429688 -15.558594 33.429688 -16.164062 33.429688 -16.765625 C 33.429688 -17.066406 33.429688 -17.367188 33.53125 -17.667969 C 33.832031 -18.371094 33.933594 -18.972656 33.933594 -19.675781 C 33.933594 -21.484375 33.933594 -23.390625 33.933594 -25.199219 C 33.933594 -26.601562 33.933594 -28.007812 33.933594 -29.515625 C 33.933594 -30.117188 33.933594 -30.617188 34.234375 -31.222656 C 34.535156 -32.023438 34.535156 -32.828125 34.132812 -33.628906 C 34.03125 -33.933594 33.933594 -34.132812 34.03125 -34.332031 C 34.433594 -35.035156 34.433594 -35.636719 34.433594 -36.339844 Z M 18.773438 -66.757812 C 19.574219 -66.757812 20.480469 -66.757812 21.28125 -66.757812 C 21.582031 -66.757812 21.984375 -66.660156 22.285156 -66.558594 C 23.390625 -66.054688 23.691406 -65.753906 24.09375 -64.652344 C 24.292969 -64.148438 24.394531 -63.648438 24.496094 -63.246094 C 24.59375 -63.042969 24.59375 -62.84375 24.496094 -62.742188 C 24.09375 -61.039062 24.394531 -59.230469 24.394531 -57.523438 C 24.394531 -57.121094 24.496094 -56.820312 24.59375 -56.519531 C 24.796875 -56.019531 24.796875 -55.515625 24.796875 -55.015625 C 24.695312 -54.511719 24.394531 -54.109375 24.394531 -53.609375 C 24.394531 -53.207031 24.496094 -52.804688 24.496094 -52.402344 C 24.195312 -51.097656 24.09375 -49.691406 24.496094 -48.386719 C 24.695312 -47.484375 24.394531 -46.582031 24.695312 -45.777344 C 24.796875 -45.578125 24.59375 -45.277344 24.496094 -45.074219 C 24.195312 -44.273438 24.195312 -43.570312 24.496094 -42.867188 C 24.898438 -41.5625 24.898438 -40.257812 24.496094 -38.953125 C 24.195312 -38.148438 24.195312 -37.445312 24.496094 -36.742188 C 24.796875 -36.140625 24.796875 -35.539062 24.796875 -34.9375 C 24.796875 -32.929688 24.796875 -30.820312 24.796875 -28.710938 C 24.796875 -28.308594 24.695312 -27.808594 24.898438 -27.40625 C 25.398438 -26.503906 25.296875 -25.5 25.296875 -24.496094 C 25.296875 -23.492188 25.199219 -22.488281 25.699219 -21.582031 C 25.800781 -21.382812 25.800781 -21.082031 25.800781 -20.78125 C 25.699219 -19.878906 26 -18.972656 26.300781 -18.070312 C 26.601562 -17.367188 26.90625 -16.5625 26.804688 -15.660156 C 26.804688 -15.460938 26.804688 -15.160156 26.90625 -14.957031 C 27.105469 -14.355469 27.40625 -13.855469 27.304688 -13.25 C 27.105469 -12.347656 26.804688 -11.445312 26.601562 -10.640625 C 26.601562 -10.238281 26.402344 -9.9375 26.300781 -9.636719 C 26.203125 -8.734375 25.398438 -8.230469 24.996094 -7.527344 C 23.894531 -6.828125 22.890625 -5.824219 21.484375 -5.824219 C 20.980469 -5.824219 20.480469 -5.519531 20.078125 -5.421875 C 18.269531 -5.21875 16.5625 -5.722656 14.957031 -6.523438 C 14.554688 -6.726562 14.355469 -7.027344 14.355469 -7.527344 C 14.253906 -7.730469 14.253906 -7.832031 14.253906 -8.03125 C 14.253906 -8.734375 14.253906 -9.535156 13.855469 -10.238281 C 13.652344 -10.640625 13.753906 -11.242188 13.550781 -11.644531 C 13.351562 -12.148438 13.351562 -12.648438 13.550781 -13.152344 C 13.855469 -13.855469 13.855469 -14.554688 13.550781 -15.359375 C 13.351562 -15.761719 13.25 -16.261719 13.25 -16.765625 C 13.25 -17.46875 13.25 -18.070312 13.25 -18.773438 C 13.25 -19.574219 13.351562 -20.277344 13.050781 -20.980469 C 12.949219 -21.183594 12.949219 -21.382812 13.050781 -21.484375 C 13.351562 -22.1875 13.25 -22.988281 13.25 -23.691406 C 13.25 -26.703125 13.25 -29.613281 13.25 -32.527344 C 13.25 -33.128906 13.25 -33.730469 13.25 -34.332031 C 13.25 -34.835938 13.25 -35.335938 13.453125 -35.738281 C 13.652344 -36.339844 13.25 -36.945312 13.652344 -37.445312 C 13.652344 -38.851562 13.753906 -40.15625 13.753906 -41.460938 C 13.652344 -42.664062 13.652344 -43.46875 13.953125 -44.574219 C 14.15625 -45.074219 14.054688 -45.375 13.953125 -45.777344 C 13.652344 -46.78125 13.753906 -47.785156 13.855469 -48.789062 C 14.554688 -50.195312 14.15625 -51.800781 14.253906 -53.308594 C 14.253906 -53.40625 14.253906 -53.609375 14.15625 -53.707031 C 13.652344 -54.8125 13.753906 -55.917969 13.753906 -56.921875 C 13.753906 -59.128906 13.753906 -61.339844 13.753906 -63.546875 C 13.753906 -64.652344 14.253906 -65.554688 15.058594 -66.359375 C 15.359375 -66.558594 15.660156 -66.757812 15.960938 -66.757812 C 16.964844 -66.757812 17.871094 -66.757812 18.773438 -66.757812 Z M 18.773438 -66.757812 "/></g></g></g><g fill="#000000" fill-opacity="1"><g transform="translate(265.9665, 96.146389)"><g><path d="M 12.046875 -53.207031 C 12.046875 -53.207031 12.046875 -53.207031 12.046875 -56.519531 C 12.046875 -56.921875 12.046875 -57.324219 12.046875 -57.824219 C 12.046875 -58.929688 12.046875 -60.132812 12.046875 -61.339844 C 12.046875 -61.539062 12.046875 -61.839844 12.148438 -62.042969 C 12.546875 -62.542969 12.949219 -63.144531 13.351562 -63.648438 C 14.15625 -63.746094 14.757812 -64.25 15.558594 -64.25 C 15.863281 -64.25 16.164062 -64.25 16.5625 -64.25 C 17.167969 -64.25 17.667969 -64.25 18.269531 -64.25 C 18.773438 -64.25 19.074219 -64.351562 19.476562 -64.449219 C 20.980469 -65.050781 22.285156 -64.75 23.589844 -63.949219 C 23.894531 -63.746094 24.195312 -63.445312 24.59375 -63.246094 C 24.898438 -63.042969 24.996094 -62.742188 25.097656 -62.441406 C 25.296875 -60.734375 25.5 -60.234375 26.300781 -58.628906 C 26.402344 -58.425781 26.503906 -58.226562 26.601562 -57.925781 C 26.703125 -57.324219 27.207031 -57.222656 27.605469 -57.023438 C 28.308594 -56.621094 29.515625 -56.820312 29.917969 -57.523438 C 30.21875 -58.027344 30.519531 -58.628906 30.316406 -59.332031 C 30.117188 -59.933594 30.117188 -60.535156 30.117188 -61.136719 C 30.117188 -61.738281 30.117188 -62.441406 29.816406 -63.042969 C 29.714844 -63.246094 29.613281 -63.546875 29.613281 -63.746094 C 29.613281 -64.351562 29.414062 -64.75 29.011719 -65.152344 C 28.609375 -65.554688 28.210938 -65.957031 28.007812 -66.558594 C 27.707031 -67.160156 27.40625 -67.761719 26.804688 -68.0625 C 26.300781 -69.167969 25.199219 -69.46875 24.394531 -70.171875 C 23.492188 -70.375 22.585938 -70.574219 21.683594 -70.773438 C 19.878906 -70.675781 17.96875 -71.175781 16.261719 -70.472656 C 16.0625 -70.375 15.761719 -70.472656 15.460938 -70.574219 C 15.160156 -70.773438 14.859375 -70.773438 14.554688 -70.574219 C 14.355469 -70.574219 14.15625 -70.574219 14.054688 -70.574219 C 13.652344 -70.773438 13.25 -70.773438 12.851562 -70.472656 C 12.546875 -70.070312 12.148438 -69.871094 11.542969 -69.871094 C 10.742188 -69.769531 10.039062 -69.269531 9.136719 -69.167969 C 8.632812 -68.667969 8.132812 -68.265625 7.730469 -67.761719 C 7.328125 -67.460938 7.027344 -67.058594 6.828125 -66.558594 C 6.222656 -65.355469 5.621094 -64.148438 5.019531 -62.945312 C 4.71875 -62.441406 4.617188 -61.941406 4.71875 -61.339844 C 4.316406 -60.636719 4.515625 -59.832031 4.117188 -59.128906 C 3.714844 -58.425781 4.015625 -57.625 3.914062 -56.921875 C 3.816406 -56.621094 3.613281 -56.320312 3.511719 -55.917969 C 2.910156 -54.011719 2.910156 -54.011719 2.910156 -52.003906 C 2.910156 -51.601562 2.8125 -51.199219 2.710938 -50.796875 C 2.507812 -50.296875 2.410156 -49.691406 2.410156 -49.089844 C 2.410156 -46.78125 2.410156 -44.574219 2.410156 -42.265625 C 2.410156 -41.660156 2.410156 -41.160156 2.609375 -40.558594 C 2.8125 -40.257812 2.507812 -39.957031 2.507812 -39.652344 C 2.609375 -39.152344 2.8125 -38.851562 2.8125 -38.449219 C 2.910156 -38.148438 2.8125 -37.949219 2.710938 -37.644531 C 2.609375 -37.34375 2.410156 -37.042969 2.410156 -36.742188 C 2.507812 -35.4375 2.207031 -34.234375 2.609375 -33.027344 C 2.8125 -32.625 2.609375 -32.125 2.710938 -31.722656 C 2.207031 -30.519531 2.507812 -29.3125 2.410156 -28.007812 C 2.410156 -27.40625 2.507812 -26.90625 2.710938 -26.300781 C 2.910156 -25.800781 3.011719 -25.296875 2.8125 -24.898438 C 2.308594 -23.792969 2.410156 -22.6875 2.410156 -21.582031 C 2.507812 -21.28125 2.710938 -20.980469 2.710938 -20.679688 C 2.609375 -20.277344 2.507812 -19.878906 2.308594 -19.476562 C 2.109375 -18.875 1.90625 -18.269531 2.308594 -17.566406 C 2.507812 -17.167969 2.410156 -16.5625 2.207031 -16.0625 C 2.109375 -15.863281 2.109375 -15.660156 2.207031 -15.359375 C 2.507812 -14.15625 2.507812 -13.050781 2.207031 -11.847656 C 2.207031 -11.746094 2.207031 -11.542969 2.207031 -11.445312 C 2.308594 -10.742188 2.410156 -10.140625 2.609375 -9.4375 C 2.8125 -8.933594 2.910156 -8.53125 2.910156 -8.03125 C 2.8125 -6.925781 3.113281 -6.023438 3.414062 -5.019531 C 3.613281 -4.617188 3.914062 -4.417969 4.316406 -4.316406 C 4.617188 -4.214844 4.820312 -4.117188 4.820312 -3.816406 C 5.019531 -3.414062 5.121094 -3.011719 5.519531 -2.8125 C 5.824219 -2.609375 8.03125 -1.203125 8.53125 -1.003906 C 9.035156 -0.804688 9.535156 -0.601562 9.839844 -0.199219 C 10.039062 0 10.238281 0.199219 10.441406 0.300781 C 10.84375 0.703125 11.242188 0.804688 11.847656 0.5 C 12.046875 0.402344 12.246094 0.402344 12.546875 0.5 C 12.851562 0.703125 13.25 0.804688 13.652344 1.003906 C 14.15625 1.203125 14.65625 1.304688 15.160156 1.105469 C 15.863281 0.703125 16.5625 0.703125 17.265625 1.003906 C 17.667969 1.203125 18.070312 1.203125 18.472656 1.203125 C 19.675781 1.203125 20.882812 1.203125 21.984375 1.203125 C 22.585938 1.203125 23.191406 1.203125 23.691406 1.503906 C 24.09375 1.707031 24.394531 1.605469 24.695312 1.40625 C 25.5 0.902344 26.203125 0.402344 27.003906 -0.101562 C 27.507812 -0.402344 27.605469 -1.105469 28.007812 -1.503906 C 28.210938 -1.605469 28.410156 -1.808594 28.609375 -2.007812 C 29.214844 -2.507812 29.113281 -3.414062 29.414062 -4.015625 C 29.714844 -4.515625 29.3125 -4.820312 29.214844 -5.21875 C 29.113281 -5.519531 29.113281 -5.921875 29.3125 -6.222656 C 29.613281 -6.726562 29.917969 -7.226562 30.015625 -7.832031 C 30.21875 -8.433594 30.417969 -9.136719 30.417969 -9.738281 C 30.316406 -10.339844 30.617188 -10.84375 30.617188 -11.445312 C 30.617188 -12.546875 30.316406 -13.453125 29.414062 -14.054688 C 29.214844 -14.15625 29.011719 -14.355469 28.8125 -14.457031 C 28.511719 -14.757812 28.210938 -14.757812 27.910156 -14.554688 C 27.507812 -14.355469 27.207031 -14.15625 27.003906 -13.753906 C 26.804688 -13.351562 26.601562 -12.949219 26.601562 -12.546875 C 26.601562 -11.945312 26.300781 -11.445312 26 -10.941406 C 25.296875 -10.140625 24.996094 -9.234375 25.097656 -8.132812 C 25.097656 -7.832031 25.097656 -7.527344 25.097656 -7.128906 C 24.996094 -6.828125 24.898438 -6.523438 24.695312 -6.222656 C 24.59375 -6.222656 24.59375 -6.125 24.496094 -6.023438 C 23.894531 -5.421875 23.289062 -4.917969 22.789062 -4.214844 C 22.1875 -3.613281 21.082031 -3.210938 21.28125 -2.109375 C 21.082031 -2.007812 20.882812 -1.808594 20.679688 -1.707031 C 20.378906 -1.40625 19.878906 -1.304688 19.574219 -1.605469 C 19.074219 -2.007812 18.570312 -2.308594 18.070312 -2.410156 C 17.066406 -2.710938 16.164062 -3.011719 15.160156 -3.414062 C 14.859375 -3.511719 14.554688 -3.613281 14.253906 -3.714844 C 13.953125 -3.914062 13.652344 -4.117188 13.550781 -4.417969 C 13.351562 -5.121094 13.25 -5.722656 12.949219 -6.324219 C 12.648438 -7.128906 12.546875 -7.929688 12.546875 -8.835938 C 12.546875 -10.941406 12.546875 -13.152344 12.546875 -15.359375 C 12.546875 -16.164062 12.449219 -16.964844 12.851562 -17.769531 C 13.050781 -18.070312 12.949219 -18.472656 12.949219 -18.773438 C 13.050781 -21.582031 13.050781 -24.292969 13.050781 -27.105469 C 13.050781 -27.605469 12.949219 -28.109375 12.75 -28.511719 C 12.546875 -28.914062 12.648438 -29.214844 12.75 -29.515625 C 13.050781 -30.117188 13.050781 -30.617188 13.050781 -31.222656 C 13.050781 -33.328125 13.050781 -35.4375 12.949219 -37.546875 C 12.949219 -37.949219 13.050781 -38.449219 12.851562 -38.75 C 12.449219 -39.652344 12.546875 -40.558594 12.546875 -41.460938 C 12.546875 -43.871094 12.546875 -46.179688 12.546875 -48.488281 C 12.546875 -49.089844 12.449219 -49.691406 12.449219 -50.296875 C 11.945312 -51.199219 12.046875 -52.304688 12.046875 -53.207031 Z M 12.046875 -53.207031 "/></g></g></g><g fill="#000000" fill-opacity="1"><g transform="translate(298.591666, 96.146389)"><g><path d="M 2.710938 -10.742188 C 2.710938 -10.742188 2.710938 -10.742188 2.710938 -7.429688 C 2.710938 -7.226562 2.710938 -7.027344 2.710938 -6.925781 C 2.710938 -5.921875 2.710938 -5.019531 2.609375 -4.015625 C 2.609375 -2.910156 3.011719 -2.007812 3.113281 -1.003906 C 3.210938 0 3.414062 0.601562 4.515625 0.601562 C 4.820312 0.601562 5.121094 0.703125 5.21875 0.804688 C 5.824219 1.503906 6.726562 1.503906 7.527344 1.808594 C 9.136719 2.410156 10.941406 1.304688 11.644531 0.300781 C 12.148438 -0.5 12.246094 -1.304688 12.648438 -2.109375 C 12.949219 -2.910156 12.648438 -3.714844 13.050781 -4.515625 C 13.152344 -4.617188 12.949219 -4.820312 12.949219 -5.019531 C 12.648438 -5.921875 12.75 -6.925781 12.851562 -7.832031 C 13.351562 -8.53125 13.25 -9.234375 13.25 -9.9375 C 13.25 -10.742188 13.351562 -11.542969 12.949219 -12.347656 C 12.851562 -12.546875 12.851562 -12.75 12.851562 -13.050781 C 12.851562 -14.957031 12.851562 -16.867188 12.851562 -18.773438 C 12.851562 -18.972656 12.851562 -19.273438 12.949219 -19.476562 C 13.351562 -20.277344 13.25 -21.082031 13.25 -21.886719 C 13.25 -23.492188 13.25 -25.199219 13.351562 -26.90625 C 13.351562 -27.40625 13.453125 -27.808594 13.855469 -28.210938 C 14.253906 -28.609375 14.757812 -29.011719 15.058594 -29.414062 C 15.359375 -30.015625 15.558594 -30.617188 15.761719 -31.222656 C 15.863281 -31.421875 15.863281 -31.722656 15.960938 -31.925781 C 15.960938 -31.925781 16.0625 -32.023438 16.164062 -32.023438 C 16.261719 -32.023438 16.261719 -31.925781 16.363281 -31.925781 C 16.867188 -31.421875 17.066406 -30.820312 17.367188 -30.21875 C 17.667969 -29.714844 17.871094 -29.214844 17.769531 -28.609375 C 17.769531 -28.410156 17.769531 -28.109375 17.871094 -27.910156 C 18.371094 -26.703125 18.472656 -25.398438 18.972656 -24.195312 C 19.074219 -23.894531 19.273438 -23.589844 19.273438 -23.289062 C 19.175781 -22.285156 19.675781 -21.484375 20.078125 -20.578125 C 20.480469 -19.878906 20.882812 -19.175781 20.882812 -18.371094 C 21.28125 -17.667969 21.382812 -16.867188 21.683594 -16.0625 C 22.1875 -15.058594 22.890625 -14.15625 22.890625 -12.949219 C 22.890625 -12.851562 22.988281 -12.648438 23.089844 -12.546875 C 23.492188 -11.847656 23.792969 -11.042969 23.992188 -10.238281 C 24.09375 -9.839844 24.195312 -9.335938 24.496094 -8.933594 C 24.898438 -8.230469 25.398438 -7.628906 25.398438 -6.726562 C 25.398438 -6.523438 25.597656 -6.324219 25.800781 -6.125 C 26.101562 -5.621094 26.402344 -5.019531 26.90625 -4.515625 C 27.40625 -4.015625 27.304688 -3.3125 27.605469 -2.8125 C 27.910156 -2.410156 28.109375 -1.90625 28.308594 -1.503906 C 28.511719 -1.203125 28.710938 -1.003906 29.113281 -0.902344 C 29.917969 -0.804688 30.617188 -0.402344 31.320312 0.101562 C 31.722656 0.5 32.226562 0.5 32.726562 0.5 C 33.128906 0.5 33.53125 0.5 33.933594 0.300781 C 34.03125 0.300781 34.234375 0.199219 34.433594 0.300781 C 34.9375 0.601562 35.335938 0.300781 35.839844 0.101562 C 36.140625 -0.101562 36.339844 -0.300781 36.441406 -0.601562 C 36.742188 -1.304688 36.542969 -2.207031 36.945312 -2.910156 C 36.945312 -3.714844 36.945312 -4.515625 36.84375 -5.320312 C 36.339844 -6.523438 36.140625 -7.730469 35.539062 -8.933594 C 35.238281 -9.535156 34.9375 -10.238281 34.734375 -10.941406 C 34.332031 -12.046875 33.832031 -13.152344 33.53125 -14.355469 C 33.328125 -14.859375 33.128906 -15.359375 32.828125 -15.863281 C 32.625 -15.960938 32.527344 -16.261719 32.527344 -16.464844 C 32.324219 -17.667969 31.824219 -18.773438 31.421875 -19.878906 C 31.121094 -20.980469 30.617188 -21.984375 29.917969 -22.890625 C 29.613281 -23.289062 29.414062 -23.589844 29.414062 -23.992188 C 29.515625 -24.996094 29.3125 -25.902344 28.8125 -26.804688 C 28.609375 -27.003906 28.410156 -27.40625 28.410156 -27.707031 C 28.511719 -28.710938 28.007812 -29.515625 27.605469 -30.417969 C 27.507812 -30.617188 27.507812 -30.820312 27.40625 -31.121094 C 27.003906 -33.230469 26 -35.136719 24.796875 -36.945312 C 24.496094 -37.34375 24.195312 -37.847656 23.992188 -38.25 C 23.792969 -39.253906 23.289062 -40.15625 22.789062 -41.160156 C 22.285156 -41.964844 22.285156 -42.765625 22.6875 -43.570312 C 23.589844 -45.175781 24.394531 -46.78125 25.199219 -48.386719 C 25.5 -48.789062 25.800781 -49.089844 26 -49.59375 C 26.503906 -50.496094 27.304688 -51.199219 27.707031 -52.203125 C 28.109375 -53.007812 28.511719 -53.808594 28.914062 -54.613281 C 29.414062 -55.414062 29.515625 -56.417969 30.316406 -57.121094 C 30.417969 -57.222656 30.417969 -57.421875 30.417969 -57.625 C 30.617188 -58.328125 30.921875 -58.929688 31.421875 -59.53125 C 31.722656 -59.933594 31.925781 -60.335938 32.226562 -60.734375 C 32.625 -61.539062 33.128906 -62.441406 33.730469 -63.246094 C 34.132812 -63.847656 34.632812 -64.652344 34.835938 -65.355469 C 35.035156 -66.15625 35.4375 -66.859375 35.4375 -67.664062 C 35.4375 -68.566406 35.4375 -69.269531 34.433594 -69.671875 C 34.132812 -69.769531 33.832031 -70.171875 33.53125 -70.472656 C 32.828125 -70.976562 32.226562 -70.875 31.621094 -70.171875 C 31.421875 -69.972656 31.222656 -69.570312 31.019531 -69.46875 C 30.316406 -69.167969 30.117188 -68.464844 29.613281 -68.164062 C 29.011719 -67.761719 28.710938 -67.160156 28.308594 -66.660156 C 27.910156 -66.15625 27.507812 -65.65625 27.207031 -65.050781 C 26.601562 -63.847656 25.597656 -62.84375 25.199219 -61.539062 C 24.195312 -59.53125 23.191406 -57.625 22.1875 -55.714844 C 22.1875 -55.515625 22.085938 -55.414062 21.886719 -55.316406 C 21.382812 -54.710938 21.183594 -53.910156 20.679688 -53.207031 C 20.179688 -52.605469 19.878906 -51.902344 19.574219 -51.097656 C 19.476562 -50.796875 19.273438 -50.496094 19.074219 -50.296875 C 18.171875 -49.292969 17.871094 -47.988281 16.964844 -46.984375 C 16.363281 -45.777344 15.660156 -44.574219 15.058594 -43.367188 C 14.859375 -42.96875 14.65625 -42.664062 14.355469 -42.363281 C 14.355469 -42.265625 14.15625 -42.265625 13.953125 -42.265625 C 13.953125 -42.265625 13.855469 -42.363281 13.855469 -42.464844 C 13.855469 -43.769531 13.855469 -45.175781 13.753906 -46.480469 C 13.753906 -47.285156 13.753906 -47.988281 13.953125 -48.6875 C 14.054688 -48.789062 14.054688 -48.992188 14.054688 -49.089844 C 13.753906 -49.691406 13.753906 -50.195312 13.753906 -50.796875 C 13.753906 -52.503906 13.753906 -54.3125 13.855469 -56.117188 C 13.855469 -56.417969 13.753906 -56.71875 13.953125 -57.023438 C 14.253906 -57.722656 14.253906 -58.328125 13.953125 -59.128906 C 13.652344 -59.632812 13.753906 -60.335938 13.953125 -60.9375 C 14.054688 -61.238281 14.054688 -61.4375 14.054688 -61.640625 C 13.652344 -62.742188 13.652344 -63.847656 14.253906 -64.953125 C 14.355469 -65.753906 14.457031 -66.558594 13.753906 -67.261719 C 13.453125 -67.5625 13.25 -68.0625 12.949219 -68.464844 C 12.648438 -68.867188 12.246094 -69.269531 11.945312 -69.769531 C 11.242188 -69.972656 10.640625 -70.171875 10.039062 -70.375 C 9.636719 -70.472656 9.136719 -70.472656 8.734375 -70.574219 C 8.632812 -70.574219 8.433594 -70.675781 8.332031 -70.574219 C 7.730469 -70.171875 7.128906 -69.871094 6.625 -69.46875 C 5.621094 -68.765625 5.019531 -67.664062 4.316406 -66.660156 C 4.214844 -66.457031 4.214844 -66.257812 4.214844 -65.957031 C 4.117188 -65.554688 4.214844 -65.152344 4.015625 -64.75 C 3.714844 -64.148438 3.714844 -63.546875 3.714844 -62.945312 C 3.714844 -61.738281 3.714844 -60.636719 3.613281 -59.53125 C 3.613281 -58.929688 3.414062 -58.328125 3.613281 -57.625 C 3.816406 -57.023438 3.714844 -56.417969 3.414062 -55.816406 C 3.3125 -55.414062 3.210938 -55.015625 3.210938 -54.613281 C 3.210938 -53.507812 3.210938 -52.402344 3.210938 -51.199219 C 3.210938 -50.796875 3.210938 -50.496094 3.414062 -50.09375 C 3.613281 -49.792969 3.613281 -49.492188 3.414062 -49.191406 C 3.210938 -48.6875 3.210938 -48.1875 3.210938 -47.785156 C 3.210938 -45.878906 3.210938 -44.070312 3.210938 -42.164062 C 3.210938 -41.761719 3.210938 -41.359375 3.011719 -41.058594 C 2.710938 -40.558594 2.710938 -39.957031 2.710938 -39.351562 C 2.710938 -37.746094 2.710938 -36.039062 2.710938 -34.332031 C 2.710938 -33.730469 2.609375 -33.230469 2.410156 -32.726562 C 2.007812 -31.722656 2.007812 -30.617188 2.308594 -29.613281 C 2.507812 -29.011719 2.710938 -28.410156 2.710938 -27.707031 C 2.710938 -27.304688 2.710938 -26.804688 3.011719 -26.402344 C 3.113281 -26.101562 3.210938 -25.699219 3.113281 -25.398438 C 3.011719 -24.996094 3.011719 -24.695312 3.011719 -24.292969 C 3.210938 -23.691406 3.210938 -22.988281 3.210938 -22.386719 C 3.210938 -21.886719 3.210938 -21.382812 3.011719 -20.980469 C 2.8125 -20.277344 2.710938 -19.675781 2.710938 -19.074219 C 2.710938 -18.171875 2.710938 -17.265625 2.308594 -16.464844 C 2.109375 -15.460938 2.007812 -14.355469 2.308594 -13.351562 C 2.609375 -12.449219 2.710938 -11.644531 2.710938 -10.742188 Z M 2.710938 -10.742188 "/></g></g></g><g fill="#000000" fill-opacity="1"><g transform="translate(337.541091, 96.146389)"><g/></g></g><g fill="#000000" fill-opacity="1"><g transform="translate(352.598863, 96.146389)"><g><path d="M 12.648438 -30.519531 C 12.648438 -30.519531 12.648438 -30.519531 12.648438 -31.222656 C 12.648438 -31.722656 12.648438 -32.226562 12.648438 -32.726562 C 12.648438 -33.128906 12.75 -33.628906 12.75 -34.132812 C 12.75 -34.433594 13.050781 -34.734375 13.351562 -34.734375 C 14.859375 -34.734375 16.464844 -34.734375 17.96875 -34.835938 C 18.671875 -34.835938 19.476562 -34.835938 20.179688 -34.835938 C 20.980469 -35.335938 21.984375 -35.136719 22.789062 -35.539062 C 23.191406 -35.738281 23.492188 -35.636719 23.792969 -35.539062 C 24.195312 -35.238281 24.59375 -35.4375 24.898438 -35.738281 C 25.097656 -35.941406 25.398438 -36.140625 25.597656 -36.441406 C 25.699219 -36.640625 25.597656 -36.945312 25.398438 -37.042969 C 24.695312 -37.34375 23.992188 -37.546875 23.390625 -37.847656 C 23.089844 -38.046875 22.890625 -38.347656 22.988281 -38.648438 C 22.988281 -38.75 22.988281 -38.851562 22.988281 -38.953125 C 22.386719 -39.351562 21.785156 -39.855469 20.980469 -39.453125 C 20.179688 -39.050781 19.273438 -39.253906 18.472656 -38.851562 C 17.871094 -39.050781 17.167969 -39.050781 16.5625 -39.152344 C 15.558594 -39.351562 14.65625 -39.652344 13.550781 -39.652344 C 13.550781 -39.652344 13.453125 -39.753906 13.351562 -39.753906 C 13.050781 -39.957031 12.648438 -40.457031 12.851562 -40.757812 C 13.25 -41.863281 13.351562 -42.96875 12.851562 -44.070312 C 12.851562 -44.273438 12.75 -44.472656 12.851562 -44.671875 C 13.152344 -45.277344 13.152344 -45.980469 13.152344 -46.582031 C 13.152344 -47.484375 13.152344 -48.386719 13.152344 -49.191406 C 13.25 -50.296875 13.050781 -51.5 13.550781 -52.503906 C 13.753906 -52.804688 13.652344 -53.207031 13.652344 -53.507812 C 13.652344 -54.3125 13.652344 -55.113281 13.652344 -55.917969 C 13.652344 -56.820312 13.753906 -57.824219 13.25 -58.726562 C 13.25 -58.828125 13.25 -59.03125 13.25 -59.128906 C 13.25 -60.734375 13.25 -62.34375 13.25 -63.949219 C 13.25 -64.25 13.550781 -64.550781 13.953125 -64.550781 C 14.054688 -64.550781 14.253906 -64.550781 14.355469 -64.449219 C 14.65625 -64.449219 14.859375 -64.25 15.160156 -64.351562 C 15.660156 -64.652344 16.261719 -64.550781 16.765625 -64.351562 C 16.964844 -64.25 17.167969 -64.148438 17.265625 -64.25 C 18.070312 -64.550781 18.972656 -64.449219 19.675781 -64.652344 C 20.679688 -65.050781 21.683594 -65.050781 22.6875 -65.050781 C 23.390625 -65.050781 23.992188 -65.152344 24.59375 -65.453125 C 25.199219 -65.65625 25.699219 -65.855469 26.300781 -65.957031 C 27.003906 -66.054688 27.605469 -66.054688 28.308594 -66.054688 C 28.511719 -66.054688 28.609375 -66.054688 28.8125 -66.054688 C 29.011719 -66.15625 29.214844 -66.359375 29.414062 -66.457031 C 29.917969 -66.960938 29.917969 -67.863281 29.414062 -68.464844 C 29.3125 -68.667969 29.113281 -68.765625 28.8125 -68.667969 C 28.308594 -68.464844 28.007812 -68.566406 27.707031 -68.96875 C 26.703125 -70.976562 26.90625 -70.875 24.496094 -70.875 C 23.992188 -70.875 23.492188 -70.875 22.988281 -70.875 C 22.585938 -70.875 22.285156 -70.875 21.984375 -70.675781 C 21.382812 -70.375 20.679688 -70.375 19.976562 -70.375 C 19.375 -70.375 18.671875 -70.273438 18.070312 -70.070312 C 16.964844 -69.769531 15.761719 -69.871094 14.554688 -70.171875 C 13.25 -70.574219 11.847656 -70.574219 10.441406 -70.070312 C 10.039062 -69.871094 9.636719 -69.871094 9.234375 -70.070312 C 8.835938 -70.273438 8.433594 -70.472656 8.132812 -70.675781 C 7.628906 -70.875 7.226562 -71.074219 6.726562 -71.277344 C 6.222656 -71.476562 5.722656 -71.175781 5.621094 -70.574219 C 5.519531 -70.070312 5.421875 -69.570312 4.820312 -69.269531 C 4.617188 -69.167969 4.316406 -68.96875 4.316406 -68.765625 C 4.015625 -67.863281 3.511719 -66.960938 3.511719 -65.957031 C 3.613281 -64.25 3.511719 -62.441406 3.613281 -60.734375 C 3.613281 -60.132812 3.511719 -59.632812 3.210938 -59.128906 C 3.011719 -58.726562 3.113281 -58.328125 3.3125 -57.925781 C 3.511719 -57.523438 3.613281 -57.121094 3.414062 -56.820312 C 3.210938 -56.21875 3.113281 -55.714844 3.414062 -55.214844 C 3.613281 -54.914062 3.613281 -54.511719 3.414062 -54.210938 C 3.210938 -53.707031 3.011719 -53.207031 3.011719 -52.605469 C 3.011719 -51.800781 3.113281 -51 2.710938 -50.296875 C 2.507812 -49.894531 2.710938 -49.492188 2.910156 -49.089844 C 3.011719 -48.789062 3.113281 -48.386719 2.910156 -47.988281 C 2.410156 -46.78125 2.507812 -45.578125 2.8125 -44.472656 C 3.210938 -43.269531 3.011719 -42.0625 3.011719 -40.859375 C 2.507812 -40.054688 2.609375 -39.152344 2.609375 -38.347656 C 2.609375 -33.628906 2.609375 -29.011719 2.507812 -24.394531 C 2.507812 -23.390625 2.609375 -22.488281 2.308594 -21.582031 C 2.507812 -21.082031 2.007812 -20.578125 2.207031 -20.179688 C 2.8125 -18.972656 2.507812 -17.769531 2.507812 -16.5625 C 2.507812 -16.261719 2.410156 -15.863281 2.308594 -15.460938 C 2.007812 -14.859375 2.007812 -14.355469 2.109375 -13.753906 C 2.410156 -12.949219 2.609375 -12.148438 2.609375 -11.242188 C 3.113281 -10.441406 3.113281 -9.535156 3.011719 -8.632812 C 3.011719 -8.230469 3.011719 -7.832031 3.113281 -7.429688 C 3.414062 -6.925781 3.210938 -6.425781 3.113281 -5.824219 C 3.011719 -5.21875 3.210938 -4.617188 3.816406 -4.117188 C 4.820312 -3.414062 5.121094 -2.910156 5.621094 -1.707031 C 5.722656 -1.503906 5.722656 -1.40625 5.921875 -1.304688 C 6.324219 -1.003906 6.828125 -0.703125 7.328125 -0.402344 C 7.929688 -0.601562 8.433594 -0.101562 9.035156 -0.199219 C 9.335938 -0.199219 9.535156 -0.199219 9.839844 -0.300781 C 10.238281 -0.402344 10.742188 -0.601562 11.242188 -0.703125 C 11.542969 -0.804688 11.847656 -1.003906 11.945312 -1.304688 C 12.347656 -1.90625 12.648438 -2.609375 12.648438 -3.3125 C 12.648438 -5.21875 12.648438 -7.226562 12.648438 -9.136719 C 12.648438 -9.535156 12.546875 -9.839844 12.449219 -10.238281 C 12.046875 -11.144531 12.148438 -11.945312 12.449219 -12.851562 C 12.648438 -13.25 12.648438 -13.652344 12.449219 -13.953125 C 12.148438 -14.65625 12.046875 -15.359375 12.449219 -16.0625 C 12.648438 -16.5625 12.648438 -16.964844 12.449219 -17.46875 C 12.148438 -17.871094 12.148438 -18.371094 12.148438 -18.875 C 12.148438 -20.480469 12.148438 -22.085938 12.148438 -23.691406 C 12.246094 -23.992188 12.246094 -24.292969 12.347656 -24.59375 C 12.449219 -24.996094 12.347656 -25.199219 12.148438 -25.5 C 11.945312 -25.699219 11.847656 -26 11.945312 -26.300781 C 12.546875 -27.707031 12.75 -29.113281 12.648438 -30.519531 Z M 12.648438 -30.519531 "/></g></g></g><g fill="#000000" fill-opacity="1"><g transform="translate(384.420958, 96.146389)"><g><path d="M 13.652344 -59.730469 C 13.652344 -59.730469 13.652344 -59.730469 13.652344 -61.539062 C 13.652344 -62.542969 13.652344 -63.546875 13.652344 -64.550781 C 13.652344 -65.152344 13.453125 -65.753906 13.152344 -66.257812 C 13.050781 -66.558594 12.851562 -66.859375 12.648438 -67.058594 C 12.148438 -67.5625 11.847656 -68.164062 11.746094 -68.867188 C 11.445312 -70.070312 10.742188 -70.675781 9.535156 -70.976562 C 9.234375 -70.976562 9.035156 -71.175781 8.835938 -71.175781 C 8.332031 -71.277344 7.832031 -71.277344 7.328125 -71.378906 C 7.027344 -71.378906 6.828125 -71.175781 6.726562 -70.976562 C 6.425781 -70.375 5.921875 -69.972656 5.421875 -69.46875 C 4.917969 -68.96875 4.417969 -68.464844 4.015625 -67.964844 C 3.816406 -67.761719 3.613281 -67.460938 3.613281 -67.160156 C 3.011719 -64.75 3.011719 -64.75 3.011719 -62.441406 C 3.011719 -61.539062 3.011719 -60.734375 3.011719 -59.933594 C 3.011719 -59.53125 3.011719 -59.03125 3.113281 -58.628906 C 3.3125 -58.125 3.210938 -57.722656 3.113281 -57.222656 C 3.011719 -56.117188 3.011719 -55.015625 3.011719 -53.910156 C 3.011719 -53.308594 3.011719 -52.605469 2.710938 -52.003906 C 2.609375 -51.902344 2.609375 -51.601562 2.710938 -51.5 C 3.3125 -50.195312 3.011719 -48.890625 3.011719 -47.484375 C 3.011719 -47.082031 2.710938 -46.679688 2.710938 -46.378906 C 2.710938 -45.878906 2.910156 -45.375 3.011719 -44.875 C 3.011719 -44.574219 3.011719 -44.171875 2.910156 -43.871094 C 2.609375 -43.269531 2.507812 -42.566406 2.507812 -41.964844 C 2.507812 -41.261719 2.507812 -40.558594 2.207031 -39.957031 C 2.109375 -39.554688 2.109375 -39.152344 2.007812 -38.75 C 2.007812 -38.25 2.007812 -37.746094 2.007812 -37.246094 C 2.109375 -36.84375 2.007812 -36.339844 2.109375 -35.941406 C 2.410156 -35.4375 2.207031 -35.035156 2.109375 -34.535156 C 2.109375 -34.332031 2.207031 -34.234375 2.308594 -34.03125 C 2.507812 -33.53125 2.507812 -33.128906 2.308594 -32.625 C 2.109375 -32.125 2.007812 -31.621094 2.007812 -31.121094 C 2.007812 -30.21875 2.007812 -29.3125 2.007812 -28.410156 C 2.007812 -27.40625 2.007812 -26.503906 2.410156 -25.699219 C 2.609375 -25.296875 2.507812 -24.796875 2.507812 -24.394531 C 2.507812 -21.28125 2.507812 -18.171875 2.507812 -15.160156 C 2.507812 -14.457031 2.507812 -13.753906 2.207031 -13.152344 C 2.007812 -12.851562 2.109375 -12.449219 2.007812 -12.148438 C 2.007812 -11.144531 2.007812 -10.140625 2.007812 -9.136719 C 2.007812 -8.734375 2.109375 -8.332031 2.308594 -7.929688 C 2.507812 -7.527344 2.507812 -7.128906 2.507812 -6.726562 C 2.507812 -6.324219 2.507812 -5.824219 2.507812 -5.421875 C 2.507812 -4.417969 2.507812 -3.414062 3.414062 -2.710938 C 3.613281 -2.109375 3.816406 -1.605469 4.015625 -1.003906 C 4.214844 -0.601562 4.515625 -0.300781 4.917969 -0.300781 C 5.519531 -0.300781 6.125 -0.300781 6.625 0 C 7.328125 0.199219 7.929688 0.199219 8.632812 0.402344 C 9.335938 0.703125 10.039062 0.703125 10.84375 0.703125 C 11.34375 0.703125 11.847656 0.402344 11.945312 -0.101562 C 12.148438 -0.902344 12.449219 -1.503906 12.851562 -2.207031 C 13.050781 -2.710938 13.152344 -3.113281 13.152344 -3.714844 C 13.152344 -4.117188 13.152344 -4.515625 13.152344 -4.917969 C 13.152344 -10.941406 13.152344 -16.964844 13.152344 -23.089844 C 13.152344 -23.589844 13.152344 -24.09375 13.351562 -24.496094 C 13.753906 -25.398438 13.652344 -26.300781 13.550781 -27.207031 C 13.453125 -27.507812 13.25 -27.707031 13.351562 -27.910156 C 13.550781 -28.410156 13.550781 -28.710938 13.351562 -29.113281 C 13.050781 -29.613281 13.152344 -30.117188 13.25 -30.617188 C 13.25 -30.71875 13.25 -30.820312 13.351562 -30.820312 C 13.550781 -31.222656 13.550781 -31.621094 13.453125 -32.023438 C 13.25 -32.527344 13.652344 -32.828125 13.550781 -33.230469 C 13.550781 -33.328125 13.550781 -33.429688 13.550781 -33.53125 C 13.351562 -34.132812 13.050781 -34.734375 13.550781 -35.4375 C 13.550781 -35.539062 13.550781 -35.738281 13.453125 -35.941406 C 12.949219 -37.246094 12.949219 -38.550781 13.453125 -39.855469 C 13.550781 -40.15625 13.652344 -40.457031 13.652344 -40.859375 C 13.652344 -41.359375 13.652344 -41.964844 13.652344 -42.566406 C 13.652344 -43.167969 13.652344 -43.769531 13.953125 -44.273438 C 14.054688 -44.472656 13.953125 -44.773438 13.953125 -44.976562 C 13.855469 -45.277344 13.652344 -45.476562 13.753906 -45.675781 C 13.753906 -47.082031 13.351562 -48.589844 13.953125 -49.894531 C 14.054688 -50.09375 13.953125 -50.394531 13.855469 -50.695312 C 13.753906 -51.097656 13.652344 -51.5 13.652344 -51.902344 C 13.652344 -52.605469 13.652344 -53.40625 13.652344 -54.109375 C 13.652344 -54.511719 13.550781 -55.015625 13.550781 -55.414062 C 12.949219 -56.117188 13.550781 -56.820312 13.351562 -57.523438 C 13.753906 -58.226562 13.652344 -59.03125 13.652344 -59.730469 Z M 13.652344 -59.730469 "/></g></g></g><g fill="#000000" fill-opacity="1"><g transform="translate(400.482579, 96.146389)"><g><path d="M 5.421875 -70.070312 C 4.917969 -70.070312 4.515625 -70.070312 4.117188 -69.972656 C 4.015625 -69.972656 3.914062 -69.972656 3.914062 -69.972656 C 3.511719 -69.769531 3.210938 -69.46875 2.8125 -69.269531 C 2.507812 -69.167969 2.207031 -69.066406 1.90625 -68.96875 C 1.707031 -68.867188 1.503906 -68.765625 1.503906 -68.667969 C 1.40625 -67.664062 0.804688 -66.960938 0.5 -66.054688 C 0.5 -65.957031 0.601562 -65.753906 0.601562 -65.65625 C 1.105469 -64.953125 1.605469 -64.449219 2.507812 -64.449219 C 3.113281 -64.449219 3.816406 -64.25 4.417969 -64.046875 C 4.820312 -63.949219 5.21875 -63.949219 5.621094 -64.046875 C 5.921875 -64.148438 6.125 -64.351562 6.324219 -64.351562 C 7.128906 -64.652344 7.929688 -64.046875 7.929688 -63.246094 C 7.929688 -63.042969 7.929688 -62.945312 7.929688 -62.742188 C 7.929688 -59.933594 7.929688 -57.023438 7.929688 -54.210938 C 7.929688 -53.808594 7.929688 -53.507812 7.832031 -53.207031 C 7.429688 -52.402344 7.429688 -51.601562 7.429688 -50.695312 C 7.429688 -48.6875 7.429688 -46.582031 7.429688 -44.472656 C 7.429688 -43.972656 7.527344 -43.46875 7.226562 -42.96875 C 6.925781 -42.363281 6.925781 -41.863281 7.226562 -41.261719 C 7.328125 -40.960938 7.429688 -40.65625 7.429688 -40.355469 C 7.429688 -39.753906 7.429688 -39.152344 7.429688 -38.550781 C 7.429688 -37.949219 7.328125 -37.34375 7.429688 -36.84375 C 7.527344 -36.140625 7.027344 -35.4375 7.226562 -34.835938 C 7.429688 -34.234375 7.128906 -33.730469 7.027344 -33.128906 C 6.925781 -32.726562 6.925781 -32.324219 7.128906 -31.925781 C 7.527344 -31.320312 7.429688 -30.617188 7.128906 -30.015625 C 6.828125 -29.414062 6.828125 -28.609375 7.128906 -28.007812 C 7.429688 -27.207031 7.429688 -26.402344 7.429688 -25.597656 C 7.429688 -24.195312 7.429688 -22.6875 7.429688 -21.28125 C 7.429688 -20.578125 7.429688 -19.777344 7.226562 -19.074219 C 7.027344 -18.570312 7.429688 -17.96875 7.128906 -17.367188 C 7.128906 -17.265625 7.226562 -17.066406 7.328125 -16.867188 C 7.328125 -16.664062 7.429688 -16.363281 7.328125 -16.164062 C 6.828125 -14.859375 6.925781 -13.550781 6.925781 -12.246094 C 6.925781 -10.238281 6.925781 -8.332031 6.925781 -6.425781 C 6.925781 -5.921875 6.925781 -5.421875 6.625 -4.917969 C 6.425781 -4.417969 6.425781 -3.816406 6.625 -3.210938 C 6.828125 -2.710938 6.925781 -2.109375 7.226562 -1.605469 C 7.328125 -1.203125 7.328125 -0.804688 7.226562 -0.402344 C 7.128906 -0.101562 7.429688 0.300781 7.730469 0.300781 C 7.929688 0.402344 8.230469 0.5 8.433594 0.402344 C 9.234375 0 9.9375 0.5 10.640625 0.601562 C 10.742188 0.703125 10.84375 0.804688 10.941406 1.003906 C 11.242188 1.40625 11.644531 1.40625 12.046875 1.203125 C 12.347656 1.003906 12.648438 1.105469 12.949219 1.203125 C 13.453125 1.503906 13.953125 1.503906 14.457031 1.304688 C 15.257812 0.902344 15.863281 0.5 16.164062 -0.402344 C 16.464844 -1.003906 16.867188 -1.503906 17.265625 -2.109375 C 17.871094 -2.8125 18.070312 -3.714844 18.070312 -4.617188 C 17.96875 -5.421875 18.070312 -6.125 18.070312 -6.925781 C 18.070312 -7.328125 17.96875 -7.730469 17.769531 -8.132812 C 17.667969 -8.332031 17.566406 -8.632812 17.667969 -8.835938 C 18.070312 -9.636719 18.070312 -10.441406 18.070312 -11.34375 C 18.070312 -12.546875 18.070312 -13.855469 18.070312 -15.058594 C 18.070312 -15.660156 18.171875 -16.261719 18.371094 -16.867188 C 18.472656 -17.167969 18.570312 -17.667969 18.570312 -18.070312 C 18.472656 -19.574219 18.773438 -21.183594 18.269531 -22.789062 C 18.269531 -22.890625 18.269531 -23.089844 18.371094 -23.289062 C 18.570312 -23.894531 18.570312 -24.59375 18.570312 -25.296875 C 18.570312 -27.808594 18.570312 -30.316406 18.570312 -32.828125 C 18.570312 -38.550781 18.570312 -44.371094 18.570312 -50.195312 C 18.570312 -51.199219 18.570312 -52.304688 18.171875 -53.40625 C 17.96875 -53.808594 18.070312 -54.410156 18.269531 -54.8125 C 18.472656 -55.316406 18.570312 -55.816406 18.570312 -56.320312 C 18.570312 -56.921875 18.570312 -57.523438 18.472656 -58.027344 C 18.472656 -58.726562 18.171875 -59.332031 18.472656 -60.035156 C 17.871094 -61.136719 18.070312 -62.242188 18.070312 -63.445312 C 18.070312 -63.847656 17.871094 -64.25 17.769531 -64.652344 C 17.667969 -64.75 17.667969 -64.851562 17.667969 -64.851562 C 17.667969 -65.050781 17.871094 -65.453125 18.070312 -65.453125 C 20.578125 -65.453125 22.988281 -65.453125 25.398438 -65.453125 C 25.597656 -65.453125 25.902344 -65.253906 26.101562 -65.152344 C 26.300781 -65.050781 26.503906 -64.851562 26.703125 -64.75 C 26.804688 -64.652344 27.003906 -64.550781 27.207031 -64.652344 C 27.808594 -64.75 28.410156 -65.050781 28.914062 -65.554688 C 29.011719 -65.753906 29.113281 -66.054688 28.914062 -66.257812 C 28.8125 -66.457031 28.609375 -66.660156 28.410156 -66.757812 C 28.109375 -66.960938 27.808594 -66.960938 27.507812 -67.058594 C 27.003906 -67.261719 26.804688 -67.5625 27.003906 -68.265625 C 27.003906 -68.667969 26.804688 -69.167969 26.503906 -69.269531 C 24.695312 -69.769531 23.089844 -70.773438 21.183594 -70.574219 C 20.679688 -70.472656 20.179688 -70.472656 19.675781 -70.675781 C 19.476562 -70.773438 19.175781 -70.773438 18.972656 -70.773438 C 17.769531 -70.472656 16.664062 -70.574219 15.460938 -70.574219 C 14.957031 -70.574219 14.65625 -70.773438 14.457031 -71.175781 C 14.253906 -71.378906 14.054688 -71.476562 13.753906 -71.378906 C 12.648438 -70.875 11.445312 -70.375 10.140625 -70.472656 C 10.039062 -70.574219 9.839844 -70.472656 9.738281 -70.375 C 9.234375 -70.273438 8.734375 -70.171875 8.230469 -69.972656 C 7.730469 -69.671875 7.226562 -69.671875 6.625 -69.871094 C 6.222656 -70.070312 5.824219 -70.070312 5.421875 -70.070312 Z M 5.421875 -70.070312 "/></g></g></g><g fill="#000000" fill-opacity="1"><g transform="translate(186.766471, 135.646175)"><g><path d="M 11.375 -16.515625 C 10.925781 -17.316406 10.421875 -17.890625 9.859375 -18.234375 C 9.304688 -18.578125 8.640625 -18.75 7.859375 -18.75 C 6.867188 -18.75 6.050781 -18.441406 5.40625 -17.828125 C 4.757812 -17.210938 4.4375 -16.457031 4.4375 -15.5625 C 4.4375 -14.875 4.703125 -14.285156 5.234375 -13.796875 C 5.773438 -13.304688 6.425781 -12.890625 7.1875 -12.546875 C 7.945312 -12.203125 8.632812 -11.898438 9.25 -11.640625 C 9.875 -11.390625 10.59375 -11.007812 11.40625 -10.5 C 12.21875 -10 12.84375 -9.363281 13.28125 -8.59375 C 13.71875 -7.832031 13.9375 -6.960938 13.9375 -5.984375 C 13.9375 -4.859375 13.65625 -3.804688 13.09375 -2.828125 C 12.53125 -1.847656 11.75 -1.070312 10.75 -0.5 C 9.75 0.0703125 8.660156 0.359375 7.484375 0.359375 C 5.867188 0.359375 4.484375 -0.113281 3.328125 -1.0625 C 2.179688 -2.019531 1.4375 -3.316406 1.09375 -4.953125 L 3.328125 -5.578125 C 3.503906 -4.453125 3.96875 -3.535156 4.71875 -2.828125 C 5.476562 -2.117188 6.382812 -1.765625 7.4375 -1.765625 C 8.570312 -1.765625 9.554688 -2.15625 10.390625 -2.9375 C 11.234375 -3.71875 11.65625 -4.660156 11.65625 -5.765625 C 11.65625 -6.742188 11.335938 -7.546875 10.703125 -8.171875 C 10.066406 -8.804688 8.90625 -9.457031 7.21875 -10.125 C 5.53125 -10.789062 4.265625 -11.539062 3.421875 -12.375 C 2.578125 -13.21875 2.15625 -14.3125 2.15625 -15.65625 C 2.15625 -17.175781 2.71875 -18.425781 3.84375 -19.40625 C 4.96875 -20.382812 6.316406 -20.875 7.890625 -20.875 C 9.054688 -20.875 10.085938 -20.601562 10.984375 -20.0625 C 11.878906 -19.519531 12.617188 -18.726562 13.203125 -17.6875 Z M 11.375 -16.515625 "/></g></g></g><g fill="#000000" fill-opacity="1"><g transform="translate(201.982548, 135.646175)"><g><path d="M 4.46875 -20.515625 L 4.46875 -12.1875 L 14.96875 -12.1875 L 14.96875 -20.515625 L 17.25 -20.515625 L 17.25 0 L 14.96875 0 L 14.96875 -10.078125 L 4.46875 -10.078125 L 4.46875 0 L 2.171875 0 L 2.171875 -20.515625 Z M 4.46875 -20.515625 "/></g></g></g><g fill="#000000" fill-opacity="1"><g transform="translate(221.417758, 135.646175)"><g><path d="M 1.03125 -10.234375 C 1.03125 -12.117188 1.503906 -13.878906 2.453125 -15.515625 C 3.410156 -17.148438 4.710938 -18.453125 6.359375 -19.421875 C 8.015625 -20.390625 9.804688 -20.875 11.734375 -20.875 C 13.640625 -20.875 15.410156 -20.398438 17.046875 -19.453125 C 18.691406 -18.515625 20 -17.21875 20.96875 -15.5625 C 21.9375 -13.914062 22.421875 -12.140625 22.421875 -10.234375 C 22.421875 -8.347656 21.945312 -6.585938 21 -4.953125 C 20.050781 -3.316406 18.753906 -2.019531 17.109375 -1.0625 C 15.460938 -0.113281 13.671875 0.359375 11.734375 0.359375 C 9.828125 0.359375 8.046875 -0.113281 6.390625 -1.0625 C 4.742188 -2.007812 3.4375 -3.300781 2.46875 -4.9375 C 1.507812 -6.582031 1.03125 -8.347656 1.03125 -10.234375 Z M 11.703125 -18.75 C 10.179688 -18.75 8.773438 -18.359375 7.484375 -17.578125 C 6.191406 -16.796875 5.175781 -15.753906 4.4375 -14.453125 C 3.695312 -13.160156 3.328125 -11.765625 3.328125 -10.265625 C 3.328125 -8.753906 3.707031 -7.34375 4.46875 -6.03125 C 5.226562 -4.726562 6.253906 -3.691406 7.546875 -2.921875 C 8.847656 -2.148438 10.242188 -1.765625 11.734375 -1.765625 C 13.234375 -1.765625 14.640625 -2.15625 15.953125 -2.9375 C 17.273438 -3.71875 18.300781 -4.757812 19.03125 -6.0625 C 19.769531 -7.375 20.140625 -8.773438 20.140625 -10.265625 C 20.140625 -11.785156 19.757812 -13.203125 19 -14.515625 C 18.25 -15.835938 17.222656 -16.875 15.921875 -17.625 C 14.628906 -18.375 13.222656 -18.75 11.703125 -18.75 Z M 11.703125 -18.75 "/></g></g></g><g fill="#000000" fill-opacity="1"><g transform="translate(244.881547, 135.646175)"><g><path d="M 12.71875 -20.515625 L 12.71875 -18.40625 L 4.359375 -18.40625 L 4.359375 -12.296875 L 12.46875 -12.296875 L 12.46875 -10.1875 L 4.359375 -10.1875 L 4.359375 -2.125 L 12.71875 -2.125 L 12.71875 0 L 2.0625 0 L 2.0625 -20.515625 Z M 12.71875 -20.515625 "/></g></g></g><g fill="#000000" fill-opacity="1"><g transform="translate(259.417122, 135.646175)"><g/></g></g><g fill="#000000" fill-opacity="1"><g transform="translate(267.800938, 135.646175)"><g><path d="M 17.71875 -16.03125 C 16.84375 -16.90625 15.863281 -17.578125 14.78125 -18.046875 C 13.707031 -18.515625 12.597656 -18.75 11.453125 -18.75 C 10.003906 -18.75 8.632812 -18.359375 7.34375 -17.578125 C 6.0625 -16.796875 5.046875 -15.753906 4.296875 -14.453125 C 3.554688 -13.148438 3.1875 -11.753906 3.1875 -10.265625 C 3.1875 -8.804688 3.5625 -7.414062 4.3125 -6.09375 C 5.0625 -4.769531 6.082031 -3.71875 7.375 -2.9375 C 8.664062 -2.15625 10.046875 -1.765625 11.515625 -1.765625 C 12.617188 -1.765625 13.707031 -2 14.78125 -2.46875 C 15.863281 -2.945312 16.84375 -3.617188 17.71875 -4.484375 L 17.71875 -1.65625 C 16.84375 -1.019531 15.875 -0.523438 14.8125 -0.171875 C 13.757812 0.179688 12.6875 0.359375 11.59375 0.359375 C 9.78125 0.359375 8.039062 -0.09375 6.375 -1 C 4.71875 -1.914062 3.390625 -3.1875 2.390625 -4.8125 C 1.390625 -6.445312 0.890625 -8.238281 0.890625 -10.1875 C 0.890625 -12.101562 1.367188 -13.878906 2.328125 -15.515625 C 3.296875 -17.160156 4.609375 -18.460938 6.265625 -19.421875 C 7.929688 -20.390625 9.707031 -20.875 11.59375 -20.875 C 12.757812 -20.875 13.894531 -20.679688 15 -20.296875 C 16.101562 -19.921875 17.007812 -19.441406 17.71875 -18.859375 Z M 17.71875 -16.03125 "/></g></g></g><g fill="#000000" fill-opacity="1"><g transform="translate(287.317803, 135.646175)"><g><path d="M 9.640625 -21.5 L 18.859375 0 L 16.328125 0 L 13.90625 -5.828125 L 5.140625 -5.828125 L 2.671875 0 L 0.15625 0 Z M 6.0625 -7.953125 L 13.015625 -7.953125 L 9.578125 -16.171875 Z M 3.703125 -20.515625 Z M 3.703125 -20.515625 "/></g></g></g><g fill="#000000" fill-opacity="1"><g transform="translate(306.3447, 135.646175)"><g><path d="M 4.359375 -20.515625 L 4.359375 -2.125 L 10.015625 -2.125 L 10.015625 0 L 2.0625 0 L 2.0625 -20.515625 Z M 4.359375 -20.515625 "/></g></g></g><g fill="#000000" fill-opacity="1"><g transform="translate(316.552263, 135.646175)"><g><path d="M 17.71875 -16.03125 C 16.84375 -16.90625 15.863281 -17.578125 14.78125 -18.046875 C 13.707031 -18.515625 12.597656 -18.75 11.453125 -18.75 C 10.003906 -18.75 8.632812 -18.359375 7.34375 -17.578125 C 6.0625 -16.796875 5.046875 -15.753906 4.296875 -14.453125 C 3.554688 -13.148438 3.1875 -11.753906 3.1875 -10.265625 C 3.1875 -8.804688 3.5625 -7.414062 4.3125 -6.09375 C 5.0625 -4.769531 6.082031 -3.71875 7.375 -2.9375 C 8.664062 -2.15625 10.046875 -1.765625 11.515625 -1.765625 C 12.617188 -1.765625 13.707031 -2 14.78125 -2.46875 C 15.863281 -2.945312 16.84375 -3.617188 17.71875 -4.484375 L 17.71875 -1.65625 C 16.84375 -1.019531 15.875 -0.523438 14.8125 -0.171875 C 13.757812 0.179688 12.6875 0.359375 11.59375 0.359375 C 9.78125 0.359375 8.039062 -0.09375 6.375 -1 C 4.71875 -1.914062 3.390625 -3.1875 2.390625 -4.8125 C 1.390625 -6.445312 0.890625 -8.238281 0.890625 -10.1875 C 0.890625 -12.101562 1.367188 -13.878906 2.328125 -15.515625 C 3.296875 -17.160156 4.609375 -18.460938 6.265625 -19.421875 C 7.929688 -20.390625 9.707031 -20.875 11.59375 -20.875 C 12.757812 -20.875 13.894531 -20.679688 15 -20.296875 C 16.101562 -19.921875 17.007812 -19.441406 17.71875 -18.859375 Z M 17.71875 -16.03125 "/></g></g></g><g fill="#000000" fill-opacity="1"><g transform="translate(336.069127, 135.646175)"><g><path d="M 4.296875 -20.515625 L 4.296875 -7.859375 C 4.296875 -6.160156 4.484375 -4.945312 4.859375 -4.21875 C 5.242188 -3.488281 5.859375 -2.894531 6.703125 -2.4375 C 7.546875 -1.988281 8.425781 -1.765625 9.34375 -1.765625 C 10.1875 -1.765625 10.984375 -1.953125 11.734375 -2.328125 C 12.492188 -2.710938 13.050781 -3.132812 13.40625 -3.59375 C 13.757812 -4.0625 14.007812 -4.59375 14.15625 -5.1875 C 14.300781 -5.789062 14.375 -6.703125 14.375 -7.921875 L 14.375 -20.515625 L 16.65625 -20.515625 L 16.65625 -7.4375 C 16.65625 -6.09375 16.515625 -5.003906 16.234375 -4.171875 C 15.953125 -3.347656 15.457031 -2.578125 14.75 -1.859375 C 14.039062 -1.148438 13.21875 -0.601562 12.28125 -0.21875 C 11.351562 0.164062 10.375 0.359375 9.34375 0.359375 C 8.050781 0.359375 6.835938 0.0546875 5.703125 -0.546875 C 4.566406 -1.160156 3.664062 -1.972656 3 -2.984375 C 2.34375 -4.003906 2.015625 -5.503906 2.015625 -7.484375 L 2.015625 -20.515625 Z M 4.296875 -20.515625 "/></g></g></g><g fill="#000000" fill-opacity="1"><g transform="translate(354.714936, 135.646175)"><g><path d="M 4.359375 -20.515625 L 4.359375 -2.125 L 10.015625 -2.125 L 10.015625 0 L 2.0625 0 L 2.0625 -20.515625 Z M 4.359375 -20.515625 "/></g></g></g><g fill="#000000" fill-opacity="1"><g transform="translate(364.922499, 135.646175)"><g><path d="M 9.640625 -21.5 L 18.859375 0 L 16.328125 0 L 13.90625 -5.828125 L 5.140625 -5.828125 L 2.671875 0 L 0.15625 0 Z M 6.0625 -7.953125 L 13.015625 -7.953125 L 9.578125 -16.171875 Z M 3.703125 -20.515625 Z M 3.703125 -20.515625 "/></g></g></g><g fill="#000000" fill-opacity="1"><g transform="translate(383.949396, 135.646175)"><g><path d="M 12.515625 -20.515625 L 12.515625 -18.40625 L 7.515625 -18.40625 L 7.515625 0 L 5.21875 0 L 5.21875 -18.40625 L 0.265625 -18.40625 L 0.265625 -20.515625 Z M 12.515625 -20.515625 "/></g></g></g><g fill="#000000" fill-opacity="1"><g transform="translate(396.74288, 135.646175)"><g><path d="M 1.03125 -10.234375 C 1.03125 -12.117188 1.503906 -13.878906 2.453125 -15.515625 C 3.410156 -17.148438 4.710938 -18.453125 6.359375 -19.421875 C 8.015625 -20.390625 9.804688 -20.875 11.734375 -20.875 C 13.640625 -20.875 15.410156 -20.398438 17.046875 -19.453125 C 18.691406 -18.515625 20 -17.21875 20.96875 -15.5625 C 21.9375 -13.914062 22.421875 -12.140625 22.421875 -10.234375 C 22.421875 -8.347656 21.945312 -6.585938 21 -4.953125 C 20.050781 -3.316406 18.753906 -2.019531 17.109375 -1.0625 C 15.460938 -0.113281 13.671875 0.359375 11.734375 0.359375 C 9.828125 0.359375 8.046875 -0.113281 6.390625 -1.0625 C 4.742188 -2.007812 3.4375 -3.300781 2.46875 -4.9375 C 1.507812 -6.582031 1.03125 -8.347656 1.03125 -10.234375 Z M 11.703125 -18.75 C 10.179688 -18.75 8.773438 -18.359375 7.484375 -17.578125 C 6.191406 -16.796875 5.175781 -15.753906 4.4375 -14.453125 C 3.695312 -13.160156 3.328125 -11.765625 3.328125 -10.265625 C 3.328125 -8.753906 3.707031 -7.34375 4.46875 -6.03125 C 5.226562 -4.726562 6.253906 -3.691406 7.546875 -2.921875 C 8.847656 -2.148438 10.242188 -1.765625 11.734375 -1.765625 C 13.234375 -1.765625 14.640625 -2.15625 15.953125 -2.9375 C 17.273438 -3.71875 18.300781 -4.757812 19.03125 -6.0625 C 19.769531 -7.375 20.140625 -8.773438 20.140625 -10.265625 C 20.140625 -11.785156 19.757812 -13.203125 19 -14.515625 C 18.25 -15.835938 17.222656 -16.875 15.921875 -17.625 C 14.628906 -18.375 13.222656 -18.75 11.703125 -18.75 Z M 11.703125 -18.75 "/></g></g></g><g fill="#000000" fill-opacity="1"><g transform="translate(420.206669, 135.646175)"><g><path d="M 5.203125 -20.515625 C 10.097656 -20.515625 12.546875 -18.628906 12.546875 -14.859375 C 12.546875 -13.285156 12.085938 -11.984375 11.171875 -10.953125 C 10.253906 -9.929688 9 -9.347656 7.40625 -9.203125 L 13.9375 0 L 11.125 0 L 4.921875 -9.015625 L 4.359375 -9.015625 L 4.359375 0 L 2.0625 0 L 2.0625 -20.515625 Z M 4.359375 -11.03125 L 5.359375 -11.03125 C 6.972656 -11.03125 8.191406 -11.328125 9.015625 -11.921875 C 9.847656 -12.515625 10.265625 -13.441406 10.265625 -14.703125 C 10.265625 -16.054688 9.859375 -17.007812 9.046875 -17.5625 C 8.242188 -18.125 7.078125 -18.40625 5.546875 -18.40625 L 4.359375 -18.40625 Z M 4.359375 -11.03125 "/></g></g></g></svg>